<?xml version="1.0" encoding="UTF-8" standalone="no"?>
<!DOCTYPE svg PUBLIC "-//W3C//DTD SVG 1.1//EN" "http://www.w3.org/Graphics/SVG/1.1/DTD/svg11.dtd">
<svg version="1.1" xmlns="http://www.w3.org/2000/svg" xmlns:xlink="http://www.w3.org/1999/xlink" preserveAspectRatio="xMidYMid meet" viewBox="0 0 640 640" width="640" height="640"><defs><path d="M573.06 502.78L86.94 502.78L86.94 492.78L573.06 492.78L573.06 502.78Z" id="a2xK4UCP3w"></path><path d="M573.06 540L86.94 540L86.94 530L573.06 530L573.06 540Z" id="i1r3FP9svR"></path><path d="M107.31 503.34L107.34 503.34L107.37 503.34L107.39 503.35L107.42 503.36L107.45 503.37L107.47 503.38L107.49 503.39L107.52 503.4L107.54 503.41L107.56 503.43L107.58 503.44L107.6 503.46L107.62 503.48L107.64 503.49L107.66 503.51L107.68 503.53L107.7 503.56L107.72 503.58L107.73 503.6L107.75 503.62L107.77 503.65L107.78 503.67L107.8 503.7L107.81 503.73L107.83 503.76L107.84 503.78L107.86 503.81L107.87 503.84L107.88 503.87L107.9 503.9L107.91 503.93L107.92 503.97L107.94 504L107.95 504.03L107.96 504.06L107.97 504.1L107.99 504.13L108 504.17L108.65 506.33L108.85 506.39L109.3 506.53L109.74 506.68L110.18 506.86L110.6 507.04L110.64 507.06L112.82 505.93L112.86 505.92L112.89 505.9L112.93 505.89L112.97 505.87L113 505.86L113.04 505.84L113.07 505.83L113.1 505.81L113.14 505.8L113.17 505.79L113.21 505.77L113.24 505.76L113.27 505.75L113.3 505.74L113.34 505.73L113.37 505.72L113.4 505.71L113.43 505.71L113.46 505.7L113.49 505.7L113.52 505.69L113.55 505.69L113.58 505.68L113.61 505.68L113.64 505.68L113.67 505.68L113.69 505.68L113.72 505.69L113.75 505.69L113.77 505.69L113.8 505.7L113.83 505.71L113.85 505.72L113.88 505.73L113.9 505.74L113.92 505.75L113.95 505.76L113.97 505.78L113.99 505.8L114.02 505.82L117.2 508.64L117.22 508.66L117.24 508.68L117.26 508.71L117.27 508.73L117.29 508.75L117.3 508.77L117.31 508.79L117.32 508.82L117.33 508.84L117.34 508.86L117.35 508.89L117.35 508.91L117.35 508.94L117.36 508.96L117.36 508.99L117.36 509.02L117.36 509.04L117.35 509.07L117.35 509.1L117.35 509.12L117.34 509.15L117.33 509.18L117.33 509.21L117.32 509.23L117.31 509.26L117.3 509.29L117.29 509.32L117.27 509.35L117.26 509.38L117.25 509.41L117.23 509.44L117.21 509.47L117.2 509.5L117.18 509.53L117.16 509.56L117.14 509.59L117.13 509.62L117.11 509.65L117.09 509.68L117.07 509.71L115.8 511.65L115.83 511.69L116.04 512.06L116.23 512.45L116.41 512.84L116.57 513.24L116.63 513.42L119.06 514L119.1 514.01L119.14 514.02L119.18 514.03L119.21 514.03L119.25 514.04L119.29 514.05L119.32 514.06L119.36 514.07L119.39 514.09L119.43 514.1L119.46 514.11L119.49 514.12L119.53 514.13L119.56 514.15L119.59 514.16L119.62 514.17L119.64 514.19L119.67 514.2L119.7 514.22L119.73 514.24L119.75 514.25L119.77 514.27L119.8 514.29L119.82 514.3L119.84 514.32L119.86 514.34L119.88 514.36L119.9 514.38L119.91 514.4L119.93 514.42L119.94 514.44L119.95 514.47L119.96 514.49L119.97 514.51L119.98 514.54L119.99 514.56L119.99 514.59L120 514.61L120 514.64L120 514.67L120 518.67L120 518.69L120 518.72L119.99 518.75L119.99 518.77L119.98 518.79L119.97 518.82L119.96 518.84L119.95 518.86L119.94 518.88L119.93 518.91L119.91 518.93L119.9 518.94L119.88 518.96L119.86 518.98L119.84 519L119.82 519.02L119.8 519.03L119.77 519.05L119.75 519.07L119.73 519.08L119.7 519.1L119.67 519.11L119.64 519.13L119.62 519.14L119.59 519.15L119.56 519.17L119.53 519.18L119.49 519.19L119.46 519.21L119.43 519.22L119.39 519.23L119.36 519.24L119.32 519.25L119.29 519.27L119.25 519.28L119.21 519.29L119.18 519.3L119.14 519.31L119.1 519.32L119.06 519.33L116.63 519.91L116.57 520.09L116.41 520.49L116.23 520.88L116.04 521.27L115.83 521.65L115.8 521.68L117.07 523.62L117.09 523.65L117.11 523.68L117.13 523.71L117.14 523.74L117.16 523.77L117.18 523.8L117.2 523.83L117.21 523.86L117.23 523.89L117.25 523.92L117.26 523.95L117.27 523.98L117.29 524.01L117.3 524.03L117.31 524.06L117.32 524.09L117.33 524.12L117.33 524.15L117.34 524.18L117.35 524.2L117.35 524.23L117.35 524.26L117.36 524.28L117.36 524.31L117.36 524.34L117.36 524.36L117.35 524.39L117.35 524.41L117.35 524.44L117.34 524.46L117.33 524.49L117.32 524.51L117.31 524.53L117.3 524.55L117.29 524.58L117.27 524.6L117.26 524.62L117.24 524.64L117.22 524.66L117.2 524.68L114.02 527.51L113.99 527.53L113.97 527.54L113.95 527.56L113.92 527.57L113.9 527.59L113.88 527.6L113.85 527.61L113.83 527.62L113.8 527.63L113.77 527.63L113.75 527.64L113.72 527.64L113.69 527.64L113.67 527.64L113.64 527.64L113.61 527.64L113.58 527.64L113.55 527.64L113.52 527.63L113.49 527.63L113.46 527.62L113.43 527.62L113.4 527.61L113.37 527.6L113.34 527.59L113.3 527.58L113.27 527.57L113.24 527.56L113.21 527.55L113.17 527.54L113.14 527.53L113.1 527.51L113.07 527.5L113.04 527.48L113 527.47L112.97 527.45L112.93 527.44L112.89 527.42L112.86 527.41L112.82 527.39L110.64 526.27L110.6 526.29L110.18 526.48L109.74 526.65L109.3 526.81L108.85 526.95L108.65 527L108 529.17L107.99 529.2L107.97 529.23L107.96 529.27L107.95 529.3L107.94 529.33L107.92 529.37L107.91 529.4L107.9 529.43L107.88 529.46L107.87 529.49L107.86 529.52L107.84 529.55L107.83 529.58L107.81 529.61L107.8 529.63L107.78 529.66L107.77 529.68L107.75 529.71L107.73 529.73L107.72 529.76L107.7 529.78L107.68 529.8L107.66 529.82L107.64 529.84L107.62 529.86L107.6 529.88L107.58 529.89L107.56 529.91L107.54 529.92L107.52 529.93L107.49 529.95L107.47 529.96L107.45 529.97L107.42 529.98L107.39 529.98L107.37 529.99L107.34 529.99L107.31 530L107.28 530L107.25 530L102.75 530L102.72 530L102.69 530L102.66 529.99L102.63 529.99L102.6 529.98L102.58 529.98L102.55 529.97L102.52 529.96L102.5 529.95L102.48 529.93L102.45 529.92L102.43 529.91L102.41 529.89L102.38 529.88L102.36 529.86L102.34 529.84L102.32 529.82L102.3 529.8L102.28 529.78L102.26 529.76L102.25 529.73L102.23 529.71L102.21 529.68L102.2 529.66L102.18 529.63L102.17 529.61L102.15 529.58L102.14 529.55L102.12 529.52L102.11 529.49L102.1 529.46L102.08 529.43L102.07 529.4L102.06 529.37L102.05 529.33L102.04 529.3L102.03 529.27L102.02 529.23L102.01 529.2L102 529.17L101.35 527L101.15 526.95L100.7 526.81L100.26 526.65L99.82 526.48L99.4 526.29L99.35 526.27L97.18 527.38L97.14 527.4L97.11 527.42L97.08 527.44L97.04 527.45L97.01 527.47L96.98 527.49L96.94 527.5L96.91 527.52L96.88 527.53L96.84 527.54L96.81 527.56L96.78 527.57L96.74 527.58L96.71 527.59L96.68 527.6L96.65 527.61L96.62 527.62L96.58 527.62L96.55 527.63L96.52 527.63L96.49 527.64L96.46 527.64L96.43 527.64L96.4 527.64L96.37 527.64L96.34 527.64L96.31 527.64L96.29 527.64L96.26 527.63L96.23 527.63L96.2 527.62L96.18 527.61L96.15 527.6L96.13 527.59L96.1 527.58L96.08 527.57L96.05 527.55L96.03 527.54L96.01 527.52L95.98 527.5L92.8 524.67L92.78 524.65L92.76 524.63L92.74 524.61L92.73 524.59L92.71 524.57L92.7 524.55L92.69 524.53L92.68 524.5L92.67 524.48L92.66 524.46L92.66 524.43L92.66 524.41L92.65 524.39L92.65 524.36L92.65 524.34L92.65 524.31L92.65 524.29L92.66 524.26L92.66 524.23L92.67 524.21L92.67 524.18L92.68 524.15L92.69 524.12L92.7 524.1L92.71 524.07L92.72 524.04L92.73 524.01L92.74 523.98L92.76 523.95L92.77 523.92L92.78 523.89L92.8 523.86L92.81 523.83L92.83 523.8L92.85 523.77L92.86 523.74L92.88 523.71L92.9 523.68L92.92 523.64L92.93 523.61L94.19 521.68L94.17 521.65L93.96 521.27L93.77 520.88L93.59 520.49L93.43 520.09L93.37 519.91L90.94 519.33L90.9 519.32L90.86 519.31L90.82 519.3L90.79 519.29L90.75 519.28L90.71 519.27L90.68 519.25L90.64 519.24L90.61 519.23L90.57 519.22L90.54 519.21L90.51 519.19L90.47 519.18L90.44 519.17L90.41 519.15L90.38 519.14L90.36 519.13L90.33 519.11L90.3 519.1L90.27 519.08L90.25 519.07L90.23 519.05L90.2 519.03L90.18 519.02L90.16 519L90.14 518.98L90.12 518.96L90.1 518.94L90.09 518.93L90.07 518.91L90.06 518.88L90.05 518.86L90.04 518.84L90.03 518.82L90.02 518.79L90.01 518.77L90.01 518.75L90 518.72L90 518.69L90 518.67L90 514.67L90 514.64L90 514.61L90.01 514.59L90.01 514.56L90.02 514.54L90.03 514.51L90.04 514.49L90.05 514.47L90.06 514.44L90.07 514.42L90.09 514.4L90.1 514.38L90.12 514.36L90.14 514.34L90.16 514.32L90.18 514.3L90.2 514.29L90.23 514.27L90.25 514.25L90.27 514.24L90.3 514.22L90.33 514.2L90.36 514.19L90.38 514.17L90.41 514.16L90.44 514.15L90.47 514.13L90.51 514.12L90.54 514.11L90.57 514.1L90.61 514.09L90.64 514.07L90.68 514.06L90.71 514.05L90.75 514.04L90.79 514.03L90.82 514.03L90.86 514.02L90.9 514.01L90.94 514L93.37 513.42L93.43 513.24L93.59 512.84L93.77 512.45L93.96 512.06L94.17 511.69L94.2 511.65L92.93 509.71L92.92 509.68L92.9 509.65L92.88 509.62L92.86 509.59L92.85 509.55L92.83 509.52L92.81 509.49L92.8 509.46L92.78 509.43L92.77 509.4L92.76 509.37L92.74 509.34L92.73 509.31L92.72 509.29L92.71 509.26L92.7 509.23L92.69 509.2L92.68 509.17L92.67 509.15L92.67 509.12L92.66 509.09L92.66 509.07L92.65 509.04L92.65 509.01L92.65 508.99L92.65 508.96L92.65 508.94L92.66 508.92L92.66 508.89L92.66 508.87L92.67 508.84L92.68 508.82L92.69 508.8L92.7 508.78L92.71 508.76L92.73 508.73L92.74 508.71L92.76 508.69L92.78 508.67L92.8 508.65L95.98 505.82L96.01 505.81L96.03 505.79L96.05 505.77L96.08 505.76L96.1 505.74L96.13 505.73L96.15 505.72L96.18 505.71L96.2 505.7L96.23 505.7L96.26 505.69L96.29 505.69L96.31 505.68L96.34 505.68L96.37 505.68L96.4 505.68L96.43 505.68L96.46 505.68L96.49 505.69L96.52 505.69L96.55 505.7L96.58 505.7L96.62 505.71L96.65 505.72L96.68 505.73L96.71 505.74L96.74 505.75L96.78 505.76L96.81 505.77L96.84 505.78L96.88 505.8L96.91 505.81L96.94 505.82L96.98 505.84L97.01 505.85L97.04 505.87L97.08 505.89L97.11 505.91L97.14 505.92L97.18 505.94L99.36 507.06L99.4 507.04L99.82 506.86L100.26 506.68L100.7 506.53L101.15 506.39L101.35 506.33L102 504.17L102.01 504.13L102.02 504.1L102.03 504.06L102.04 504.03L102.05 504L102.06 503.97L102.07 503.93L102.08 503.9L102.1 503.87L102.11 503.84L102.12 503.81L102.14 503.78L102.15 503.76L102.17 503.73L102.18 503.7L102.2 503.67L102.21 503.65L102.23 503.62L102.25 503.6L102.26 503.58L102.28 503.56L102.3 503.53L102.32 503.51L102.34 503.49L102.36 503.48L102.38 503.46L102.41 503.44L102.43 503.43L102.45 503.41L102.48 503.4L102.5 503.39L102.52 503.38L102.55 503.37L102.58 503.36L102.6 503.35L102.63 503.34L102.66 503.34L102.69 503.34L102.72 503.33L102.75 503.33L107.25 503.33L107.28 503.33L107.31 503.34ZM104.46 510.85L104.2 510.88L103.94 510.91L103.68 510.95L103.42 511L103.17 511.06L102.93 511.13L102.68 511.21L102.45 511.29L102.21 511.38L101.98 511.48L101.76 511.59L101.54 511.71L101.33 511.83L101.12 511.96L100.92 512.09L100.73 512.24L100.54 512.39L100.36 512.54L100.18 512.7L100.02 512.87L99.86 513.04L99.7 513.22L99.56 513.41L99.42 513.59L99.29 513.79L99.17 513.99L99.06 514.19L98.95 514.4L98.86 514.61L98.77 514.82L98.7 515.04L98.63 515.26L98.57 515.49L98.52 515.72L98.49 515.95L98.46 516.19L98.44 516.43L98.44 516.67L98.44 516.91L98.46 517.15L98.49 517.38L98.52 517.61L98.57 517.84L98.63 518.07L98.7 518.29L98.77 518.51L98.86 518.73L98.95 518.94L99.06 519.14L99.17 519.35L99.29 519.55L99.42 519.74L99.56 519.93L99.7 520.11L99.86 520.29L100.02 520.46L100.18 520.63L100.36 520.79L100.54 520.95L100.73 521.1L100.92 521.24L101.12 521.37L101.33 521.5L101.54 521.63L101.76 521.74L101.98 521.85L102.21 521.95L102.45 522.04L102.68 522.13L102.93 522.2L103.17 522.27L103.42 522.33L103.68 522.38L103.94 522.42L104.2 522.46L104.46 522.48L104.73 522.5L105 522.5L105.27 522.5L105.54 522.48L105.8 522.46L106.06 522.42L106.32 522.38L106.58 522.33L106.83 522.27L107.07 522.2L107.32 522.13L107.55 522.04L107.79 521.95L108.02 521.85L108.24 521.74L108.46 521.63L108.67 521.5L108.88 521.37L109.08 521.24L109.27 521.1L109.46 520.95L109.64 520.79L109.82 520.63L109.98 520.46L110.14 520.29L110.3 520.11L110.44 519.93L110.58 519.74L110.71 519.55L110.83 519.35L110.94 519.14L111.05 518.94L111.14 518.73L111.23 518.51L111.3 518.29L111.37 518.07L111.43 517.84L111.48 517.61L111.51 517.38L111.54 517.15L111.56 516.91L111.56 516.67L111.56 516.43L111.54 516.19L111.51 515.95L111.48 515.72L111.43 515.49L111.37 515.26L111.3 515.04L111.23 514.82L111.14 514.61L111.05 514.4L110.94 514.19L110.83 513.99L110.71 513.79L110.58 513.59L110.44 513.41L110.3 513.22L110.14 513.04L109.98 512.87L109.82 512.7L109.64 512.54L109.46 512.39L109.27 512.24L109.08 512.09L108.88 511.96L108.67 511.83L108.46 511.71L108.24 511.59L108.02 511.48L107.79 511.38L107.55 511.29L107.32 511.21L107.07 511.13L106.83 511.06L106.58 511L106.32 510.95L106.06 510.91L105.8 510.88L105.54 510.85L105.27 510.84L105 510.83L104.73 510.84L104.46 510.85Z" id="aO2bFbrhR"></path><path d="M183.98 530L184.01 529.99L184.03 529.99L184.06 529.98L184.09 529.98L184.11 529.97L184.14 529.96L184.16 529.95L184.18 529.93L184.21 529.92L184.23 529.91L184.25 529.89L184.27 529.88L184.29 529.86L184.31 529.84L184.33 529.82L184.35 529.8L184.37 529.78L184.38 529.76L184.4 529.73L184.42 529.71L184.43 529.68L184.45 529.66L184.46 529.63L184.48 529.61L184.49 529.58L184.51 529.55L184.52 529.52L184.54 529.49L184.55 529.46L184.56 529.43L184.58 529.4L184.59 529.37L184.6 529.33L184.62 529.3L184.63 529.27L184.64 529.23L184.65 529.2L184.67 529.17L185.32 527L185.52 526.95L185.97 526.81L186.41 526.65L186.84 526.48L187.27 526.29L187.3 526.27L189.49 527.4L189.53 527.42L189.56 527.43L189.6 527.45L189.63 527.46L189.67 527.48L189.7 527.49L189.74 527.51L189.77 527.52L189.81 527.53L189.84 527.55L189.87 527.56L189.91 527.57L189.94 527.58L189.97 527.59L190 527.6L190.03 527.61L190.07 527.62L190.1 527.63L190.13 527.63L190.16 527.64L190.19 527.64L190.22 527.65L190.25 527.65L190.28 527.65L190.3 527.65L190.33 527.65L190.36 527.65L190.39 527.65L190.41 527.64L190.44 527.64L190.47 527.63L190.49 527.63L190.52 527.62L190.54 527.61L190.57 527.6L190.59 527.58L190.61 527.57L190.64 527.55L190.66 527.54L190.68 527.52L193.86 524.69L193.89 524.67L193.9 524.65L193.92 524.63L193.94 524.61L193.95 524.58L193.97 524.56L193.98 524.54L193.99 524.52L194 524.49L194.01 524.47L194.01 524.45L194.02 524.42L194.02 524.4L194.02 524.37L194.03 524.34L194.02 524.32L194.02 524.29L194.02 524.27L194.02 524.24L194.01 524.21L194.01 524.18L194 524.16L193.99 524.13L193.98 524.1L193.97 524.07L193.96 524.04L193.95 524.01L193.94 523.98L193.93 523.96L193.91 523.93L193.9 523.9L193.88 523.87L193.87 523.84L193.85 523.81L193.83 523.78L193.81 523.75L193.79 523.72L193.77 523.69L193.75 523.66L193.73 523.63L192.47 521.69L192.49 521.65L192.7 521.27L192.9 520.88L193.07 520.49L193.23 520.09L193.3 519.91L195.73 519.33L195.77 519.33L195.81 519.32L195.84 519.31L195.88 519.3L195.92 519.29L195.95 519.28L195.99 519.27L196.03 519.26L196.06 519.25L196.09 519.24L196.13 519.22L196.16 519.21L196.19 519.2L196.22 519.19L196.25 519.17L196.28 519.16L196.31 519.14L196.34 519.13L196.37 519.11L196.39 519.1L196.42 519.08L196.44 519.06L196.46 519.05L196.49 519.03L196.51 519.01L196.53 518.99L196.54 518.97L196.56 518.95L196.58 518.93L196.59 518.91L196.61 518.89L196.62 518.87L196.63 518.84L196.64 518.82L196.65 518.8L196.65 518.77L196.66 518.75L196.66 518.72L196.67 518.69L196.67 518.67L196.67 514.67L196.67 514.64L196.66 514.61L196.66 514.59L196.65 514.56L196.65 514.54L196.64 514.52L196.63 514.49L196.62 514.47L196.61 514.45L196.59 514.43L196.58 514.41L196.56 514.39L196.54 514.37L196.53 514.35L196.51 514.33L196.49 514.32L196.46 514.3L196.44 514.28L196.42 514.27L196.39 514.25L196.37 514.24L196.34 514.22L196.31 514.21L196.28 514.19L196.25 514.18L196.22 514.17L196.19 514.15L196.16 514.14L196.13 514.13L196.09 514.12L196.06 514.1L196.03 514.09L195.99 514.08L195.95 514.07L195.92 514.06L195.88 514.05L195.84 514.03L195.81 514.02L195.77 514.01L195.73 514L193.3 513.42L193.23 513.24L193.07 512.84L192.9 512.45L192.7 512.06L192.49 511.69L192.47 511.65L193.73 509.71L193.75 509.68L193.77 509.65L193.79 509.62L193.81 509.59L193.83 509.56L193.85 509.53L193.87 509.5L193.88 509.47L193.9 509.44L193.91 509.42L193.93 509.39L193.94 509.36L193.95 509.33L193.96 509.3L193.97 509.27L193.98 509.24L193.99 509.21L194 509.19L194.01 509.16L194.01 509.13L194.02 509.1L194.02 509.08L194.02 509.05L194.02 509.02L194.03 509L194.02 508.97L194.02 508.95L194.02 508.92L194.01 508.9L194.01 508.87L194 508.85L193.99 508.82L193.98 508.8L193.97 508.78L193.95 508.76L193.94 508.73L193.92 508.71L193.9 508.69L193.89 508.67L193.86 508.65L190.68 505.82L190.66 505.81L190.64 505.79L190.61 505.77L190.59 505.76L190.57 505.75L190.54 505.73L190.52 505.72L190.49 505.72L190.47 505.71L190.44 505.7L190.41 505.7L190.39 505.69L190.36 505.69L190.33 505.69L190.3 505.69L190.28 505.69L190.25 505.69L190.22 505.69L190.19 505.7L190.16 505.7L190.13 505.71L190.1 505.72L190.07 505.72L190.03 505.73L190 505.74L189.97 505.75L189.94 505.76L189.91 505.77L189.87 505.78L189.84 505.79L189.81 505.81L189.77 505.82L189.74 505.83L189.7 505.85L189.67 505.86L189.63 505.88L189.6 505.89L189.56 505.91L189.53 505.93L189.49 505.94L187.31 507.06L187.27 507.04L186.84 506.86L186.41 506.68L185.97 506.53L185.52 506.39L185.32 506.33L184.67 504.17L184.65 504.13L184.64 504.1L184.63 504.06L184.62 504.03L184.6 504L184.59 503.97L184.58 503.93L184.56 503.9L184.55 503.87L184.54 503.84L184.52 503.81L184.51 503.78L184.49 503.76L184.48 503.73L184.46 503.7L184.45 503.67L184.43 503.65L184.42 503.62L184.4 503.6L184.38 503.58L184.37 503.56L184.35 503.53L184.33 503.51L184.31 503.49L184.29 503.48L184.27 503.46L184.25 503.44L184.23 503.43L184.21 503.41L184.18 503.4L184.16 503.39L184.14 503.38L184.11 503.37L184.09 503.36L184.06 503.35L184.03 503.34L184.01 503.34L183.98 503.34L183.95 503.33L183.92 503.33L179.42 503.33L179.39 503.33L179.36 503.34L179.33 503.34L179.3 503.34L179.27 503.35L179.24 503.36L179.22 503.37L179.19 503.38L179.17 503.39L179.14 503.4L179.12 503.41L179.09 503.43L179.07 503.44L179.05 503.46L179.03 503.48L179.01 503.49L178.99 503.51L178.97 503.53L178.95 503.56L178.93 503.58L178.91 503.6L178.9 503.62L178.88 503.65L178.86 503.67L178.85 503.7L178.83 503.73L178.82 503.76L178.8 503.78L178.79 503.81L178.78 503.84L178.76 503.87L178.75 503.9L178.74 503.93L178.73 503.97L178.72 504L178.71 504.03L178.7 504.06L178.69 504.1L178.68 504.13L178.67 504.17L178.02 506.33L177.81 506.39L177.36 506.53L176.92 506.68L176.49 506.86L176.07 507.04L176.01 507.07L173.84 505.95L173.81 505.93L173.78 505.91L173.74 505.9L173.71 505.88L173.68 505.86L173.64 505.85L173.61 505.83L173.58 505.82L173.54 505.8L173.51 505.79L173.48 505.78L173.44 505.77L173.41 505.75L173.38 505.74L173.35 505.73L173.31 505.73L173.28 505.72L173.25 505.71L173.22 505.71L173.19 505.7L173.16 505.7L173.13 505.69L173.1 505.69L173.07 505.69L173.04 505.69L173.01 505.69L172.98 505.69L172.95 505.7L172.92 505.7L172.9 505.71L172.87 505.71L172.84 505.72L172.82 505.73L172.79 505.74L172.77 505.75L172.74 505.77L172.72 505.78L172.7 505.8L172.67 505.81L172.65 505.83L169.47 508.66L169.45 508.68L169.43 508.7L169.41 508.72L169.39 508.74L169.38 508.76L169.37 508.79L169.36 508.81L169.35 508.83L169.34 508.85L169.33 508.88L169.33 508.9L169.32 508.92L169.32 508.95L169.32 508.97L169.32 509L169.32 509.02L169.32 509.05L169.32 509.07L169.33 509.1L169.33 509.13L169.34 509.15L169.35 509.18L169.35 509.21L169.36 509.24L169.37 509.27L169.38 509.29L169.4 509.32L169.41 509.35L169.42 509.38L169.44 509.41L169.45 509.44L169.46 509.47L169.48 509.5L169.5 509.53L169.51 509.56L169.53 509.59L169.55 509.63L169.57 509.66L169.58 509.69L169.6 509.72L170.86 511.65L170.84 511.69L170.63 512.06L170.44 512.45L170.26 512.84L170.1 513.24L170.04 513.42L167.6 514L167.57 514.01L167.53 514.02L167.49 514.03L167.45 514.05L167.42 514.06L167.38 514.07L167.34 514.08L167.31 514.09L167.27 514.1L167.24 514.12L167.21 514.13L167.17 514.14L167.14 514.15L167.11 514.17L167.08 514.18L167.05 514.19L167.02 514.21L166.99 514.22L166.97 514.24L166.94 514.25L166.92 514.27L166.89 514.28L166.87 514.3L166.85 514.32L166.83 514.33L166.81 514.35L166.79 514.37L166.77 514.39L166.76 514.41L166.74 514.43L166.73 514.45L166.71 514.47L166.7 514.49L166.69 514.52L166.69 514.54L166.68 514.56L166.67 514.59L166.67 514.61L166.67 514.64L166.67 514.67L166.67 518.67L166.67 518.69L166.67 518.72L166.67 518.75L166.68 518.77L166.69 518.8L166.69 518.82L166.7 518.84L166.71 518.87L166.73 518.89L166.74 518.91L166.76 518.93L166.77 518.95L166.79 518.97L166.81 518.99L166.83 519.01L166.85 519.03L166.87 519.05L166.89 519.06L166.92 519.08L166.94 519.1L166.97 519.11L166.99 519.13L167.02 519.14L167.05 519.16L167.08 519.17L167.11 519.19L167.14 519.2L167.17 519.21L167.21 519.22L167.24 519.24L167.27 519.25L167.31 519.26L167.34 519.27L167.38 519.28L167.42 519.29L167.45 519.3L167.49 519.31L167.53 519.32L167.57 519.33L167.6 519.33L170.04 519.91L170.1 520.09L170.26 520.49L170.44 520.88L170.63 521.27L170.84 521.65L170.86 521.68L169.6 523.62L169.58 523.65L169.57 523.68L169.55 523.72L169.53 523.75L169.51 523.78L169.5 523.81L169.48 523.84L169.46 523.87L169.45 523.9L169.44 523.93L169.42 523.96L169.41 523.99L169.4 524.02L169.38 524.05L169.37 524.08L169.36 524.1L169.35 524.13L169.35 524.16L169.34 524.19L169.33 524.21L169.33 524.24L169.32 524.27L169.32 524.29L169.32 524.32L169.32 524.34L169.32 524.37L169.32 524.39L169.32 524.42L169.33 524.44L169.33 524.47L169.34 524.49L169.35 524.51L169.36 524.53L169.37 524.56L169.38 524.58L169.39 524.6L169.41 524.62L169.43 524.64L169.45 524.66L169.47 524.68L172.65 527.51L172.67 527.53L172.7 527.55L172.72 527.56L172.74 527.58L172.77 527.59L172.79 527.6L172.82 527.61L172.84 527.62L172.87 527.63L172.9 527.64L172.92 527.64L172.95 527.65L172.98 527.65L173.01 527.65L173.04 527.65L173.07 527.65L173.1 527.65L173.13 527.65L173.16 527.65L173.19 527.64L173.22 527.64L173.25 527.63L173.28 527.62L173.31 527.62L173.35 527.61L173.38 527.6L173.41 527.59L173.44 527.58L173.48 527.56L173.51 527.55L173.54 527.54L173.58 527.52L173.61 527.51L173.64 527.49L173.68 527.48L173.71 527.46L173.74 527.45L173.78 527.43L173.81 527.41L173.84 527.39L176.02 526.27L176.07 526.29L176.49 526.48L176.92 526.65L177.36 526.81L177.81 526.95L178.02 527L178.67 529.17L178.68 529.2L178.69 529.23L178.7 529.27L178.71 529.3L178.72 529.33L178.73 529.37L178.74 529.4L178.75 529.43L178.76 529.46L178.78 529.49L178.79 529.52L178.8 529.55L178.82 529.58L178.83 529.61L178.85 529.63L178.86 529.66L178.88 529.68L178.9 529.71L178.91 529.73L178.93 529.76L178.95 529.78L178.97 529.8L178.99 529.82L179.01 529.84L179.03 529.86L179.05 529.88L179.07 529.89L179.09 529.91L179.12 529.92L179.14 529.93L179.17 529.95L179.19 529.96L179.22 529.97L179.24 529.98L179.27 529.98L179.3 529.99L179.33 529.99L179.36 530L179.39 530L179.42 530L183.92 530L183.95 530L183.98 530ZM181.13 522.48L180.86 522.46L180.6 522.42L180.34 522.38L180.09 522.33L179.84 522.27L179.59 522.2L179.35 522.13L179.11 522.04L178.88 521.95L178.65 521.85L178.43 521.74L178.21 521.63L178 521.5L177.79 521.37L177.59 521.24L177.4 521.1L177.21 520.95L177.03 520.79L176.85 520.63L176.68 520.46L176.52 520.29L176.37 520.11L176.22 519.93L176.09 519.74L175.96 519.55L175.84 519.35L175.72 519.14L175.62 518.94L175.52 518.73L175.44 518.51L175.36 518.29L175.29 518.07L175.24 517.84L175.19 517.61L175.15 517.38L175.13 517.15L175.11 516.91L175.1 516.67L175.11 516.43L175.13 516.19L175.15 515.95L175.19 515.72L175.24 515.49L175.29 515.26L175.36 515.04L175.44 514.82L175.52 514.61L175.62 514.4L175.72 514.19L175.84 513.99L175.96 513.79L176.09 513.59L176.22 513.41L176.37 513.22L176.52 513.04L176.68 512.87L176.85 512.7L177.03 512.54L177.21 512.39L177.4 512.24L177.59 512.09L177.79 511.96L178 511.83L178.21 511.71L178.43 511.59L178.65 511.48L178.88 511.38L179.11 511.29L179.35 511.21L179.59 511.13L179.84 511.06L180.09 511L180.34 510.95L180.6 510.91L180.86 510.88L181.13 510.85L181.4 510.84L181.67 510.83L181.94 510.84L182.2 510.85L182.47 510.88L182.73 510.91L182.99 510.95L183.24 511L183.49 511.06L183.74 511.13L183.98 511.21L184.22 511.29L184.45 511.38L184.68 511.48L184.91 511.59L185.12 511.71L185.34 511.83L185.54 511.96L185.74 512.09L185.94 512.24L186.13 512.39L186.31 512.54L186.48 512.7L186.65 512.87L186.81 513.04L186.96 513.22L187.11 513.41L187.25 513.59L187.38 513.79L187.5 513.99L187.61 514.19L187.71 514.4L187.81 514.61L187.89 514.82L187.97 515.04L188.04 515.26L188.1 515.49L188.14 515.72L188.18 515.95L188.21 516.19L188.22 516.43L188.23 516.67L188.22 516.91L188.21 517.15L188.18 517.38L188.14 517.61L188.1 517.84L188.04 518.07L187.97 518.29L187.89 518.51L187.81 518.73L187.71 518.94L187.61 519.14L187.5 519.35L187.38 519.55L187.25 519.74L187.11 519.93L186.96 520.11L186.81 520.29L186.65 520.46L186.48 520.63L186.31 520.79L186.13 520.95L185.94 521.1L185.74 521.24L185.54 521.37L185.34 521.5L185.12 521.63L184.91 521.74L184.68 521.85L184.45 521.95L184.22 522.04L183.98 522.13L183.74 522.2L183.49 522.27L183.24 522.33L182.99 522.38L182.73 522.42L182.47 522.46L182.2 522.48L181.94 522.5L181.67 522.5L181.4 522.5L181.13 522.48Z" id="eWeR06JTe"></path><path d="M259.25 530L259.28 529.99L259.31 529.99L259.34 529.98L259.36 529.98L259.39 529.97L259.42 529.96L259.44 529.95L259.46 529.93L259.49 529.92L259.51 529.91L259.53 529.89L259.55 529.88L259.57 529.86L259.59 529.84L259.61 529.82L259.63 529.8L259.64 529.78L259.66 529.76L259.68 529.73L259.7 529.71L259.71 529.68L259.73 529.66L259.74 529.63L259.76 529.61L259.77 529.58L259.79 529.55L259.8 529.52L259.81 529.49L259.83 529.46L259.84 529.43L259.85 529.4L259.87 529.37L259.88 529.33L259.89 529.3L259.91 529.27L259.92 529.23L259.93 529.2L259.94 529.17L260.59 527L260.8 526.95L261.25 526.81L261.69 526.65L262.12 526.48L262.55 526.29L262.58 526.27L264.77 527.4L264.8 527.42L264.84 527.43L264.87 527.45L264.91 527.46L264.95 527.48L264.98 527.49L265.01 527.51L265.05 527.52L265.08 527.53L265.12 527.55L265.15 527.56L265.18 527.57L265.22 527.58L265.25 527.59L265.28 527.6L265.31 527.61L265.34 527.62L265.37 527.63L265.41 527.63L265.44 527.64L265.47 527.64L265.5 527.65L265.52 527.65L265.55 527.65L265.58 527.65L265.61 527.65L265.64 527.65L265.66 527.65L265.69 527.64L265.72 527.64L265.74 527.63L265.77 527.63L265.8 527.62L265.82 527.61L265.84 527.6L265.87 527.58L265.89 527.57L265.92 527.55L265.94 527.54L265.96 527.52L269.14 524.69L269.16 524.67L269.18 524.65L269.2 524.63L269.22 524.61L269.23 524.58L269.25 524.56L269.26 524.54L269.27 524.52L269.28 524.49L269.28 524.47L269.29 524.45L269.3 524.42L269.3 524.4L269.3 524.37L269.3 524.34L269.3 524.32L269.3 524.29L269.3 524.27L269.3 524.24L269.29 524.21L269.29 524.18L269.28 524.16L269.27 524.13L269.26 524.1L269.25 524.07L269.24 524.04L269.23 524.01L269.22 523.98L269.2 523.96L269.19 523.93L269.17 523.9L269.16 523.87L269.14 523.84L269.13 523.81L269.11 523.78L269.09 523.75L269.07 523.72L269.05 523.69L269.03 523.66L269.01 523.63L267.75 521.69L267.77 521.65L267.98 521.27L268.17 520.88L268.35 520.49L268.51 520.09L268.57 519.91L271.01 519.33L271.05 519.33L271.08 519.32L271.12 519.31L271.16 519.3L271.2 519.29L271.23 519.28L271.27 519.27L271.3 519.26L271.34 519.25L271.37 519.24L271.41 519.22L271.44 519.21L271.47 519.2L271.5 519.19L271.53 519.17L271.56 519.16L271.59 519.14L271.62 519.13L271.64 519.11L271.67 519.1L271.69 519.08L271.72 519.06L271.74 519.05L271.76 519.03L271.78 519.01L271.8 518.99L271.82 518.97L271.84 518.95L271.86 518.93L271.87 518.91L271.88 518.89L271.9 518.87L271.91 518.84L271.92 518.82L271.93 518.8L271.93 518.77L271.94 518.75L271.94 518.72L271.94 518.69L271.94 518.67L271.94 514.67L271.94 514.64L271.94 514.61L271.94 514.59L271.93 514.56L271.93 514.54L271.92 514.52L271.91 514.49L271.9 514.47L271.88 514.45L271.87 514.43L271.86 514.41L271.84 514.39L271.82 514.37L271.8 514.35L271.78 514.33L271.76 514.32L271.74 514.3L271.72 514.28L271.69 514.27L271.67 514.25L271.64 514.24L271.62 514.22L271.59 514.21L271.56 514.19L271.53 514.18L271.5 514.17L271.47 514.15L271.44 514.14L271.41 514.13L271.37 514.12L271.34 514.1L271.3 514.09L271.27 514.08L271.23 514.07L271.2 514.06L271.16 514.05L271.12 514.03L271.08 514.02L271.05 514.01L271.01 514L268.57 513.42L268.51 513.24L268.35 512.84L268.17 512.45L267.98 512.06L267.77 511.69L267.75 511.65L269.01 509.71L269.03 509.68L269.05 509.65L269.07 509.62L269.09 509.59L269.11 509.56L269.13 509.53L269.14 509.5L269.16 509.47L269.17 509.44L269.19 509.42L269.2 509.39L269.22 509.36L269.23 509.33L269.24 509.3L269.25 509.27L269.26 509.24L269.27 509.21L269.28 509.19L269.29 509.16L269.29 509.13L269.3 509.1L269.3 509.08L269.3 509.05L269.3 509.02L269.3 509L269.3 508.97L269.3 508.95L269.3 508.92L269.29 508.9L269.28 508.87L269.28 508.85L269.27 508.82L269.26 508.8L269.25 508.78L269.23 508.76L269.22 508.73L269.2 508.71L269.18 508.69L269.16 508.67L269.14 508.65L265.96 505.82L265.94 505.81L265.92 505.79L265.89 505.77L265.87 505.76L265.84 505.75L265.82 505.73L265.8 505.72L265.77 505.72L265.74 505.71L265.72 505.7L265.69 505.7L265.66 505.69L265.64 505.69L265.61 505.69L265.58 505.69L265.55 505.69L265.52 505.69L265.5 505.69L265.47 505.7L265.44 505.7L265.41 505.71L265.37 505.72L265.34 505.72L265.31 505.73L265.28 505.74L265.25 505.75L265.22 505.76L265.18 505.77L265.15 505.78L265.12 505.79L265.08 505.81L265.05 505.82L265.01 505.83L264.98 505.85L264.95 505.86L264.91 505.88L264.87 505.89L264.84 505.91L264.8 505.93L264.77 505.94L262.59 507.06L262.55 507.04L262.12 506.86L261.69 506.68L261.25 506.53L260.8 506.39L260.59 506.33L259.94 504.17L259.93 504.13L259.92 504.1L259.91 504.06L259.89 504.03L259.88 504L259.87 503.97L259.85 503.93L259.84 503.9L259.83 503.87L259.81 503.84L259.8 503.81L259.79 503.78L259.77 503.76L259.76 503.73L259.74 503.7L259.73 503.67L259.71 503.65L259.7 503.62L259.68 503.6L259.66 503.58L259.64 503.56L259.63 503.53L259.61 503.51L259.59 503.49L259.57 503.48L259.55 503.46L259.53 503.44L259.51 503.43L259.49 503.41L259.46 503.4L259.44 503.39L259.42 503.38L259.39 503.37L259.36 503.36L259.34 503.35L259.31 503.34L259.28 503.34L259.25 503.34L259.23 503.33L259.19 503.33L254.69 503.33L254.66 503.33L254.63 503.34L254.6 503.34L254.58 503.34L254.55 503.35L254.52 503.36L254.49 503.37L254.47 503.38L254.44 503.39L254.42 503.4L254.4 503.41L254.37 503.43L254.35 503.44L254.33 503.46L254.31 503.48L254.29 503.49L254.27 503.51L254.25 503.53L254.23 503.56L254.21 503.58L254.19 503.6L254.17 503.62L254.16 503.65L254.14 503.67L254.13 503.7L254.11 503.73L254.1 503.76L254.08 503.78L254.07 503.81L254.05 503.84L254.04 503.87L254.03 503.9L254.02 503.93L254.01 503.97L253.99 504L253.98 504.03L253.97 504.06L253.96 504.1L253.95 504.13L253.94 504.17L253.3 506.33L253.09 506.39L252.64 506.53L252.2 506.68L251.77 506.86L251.34 507.04L251.29 507.07L249.12 505.95L249.09 505.93L249.05 505.91L249.02 505.9L248.99 505.88L248.95 505.86L248.92 505.85L248.89 505.83L248.85 505.82L248.82 505.8L248.79 505.79L248.75 505.78L248.72 505.77L248.69 505.75L248.66 505.74L248.62 505.73L248.59 505.73L248.56 505.72L248.53 505.71L248.5 505.71L248.47 505.7L248.44 505.7L248.41 505.69L248.38 505.69L248.35 505.69L248.32 505.69L248.29 505.69L248.26 505.69L248.23 505.7L248.2 505.7L248.18 505.71L248.15 505.71L248.12 505.72L248.1 505.73L248.07 505.74L248.05 505.75L248.02 505.77L248 505.78L247.97 505.8L247.95 505.81L247.93 505.83L244.75 508.66L244.73 508.68L244.71 508.7L244.69 508.72L244.67 508.74L244.66 508.76L244.65 508.79L244.63 508.81L244.62 508.83L244.62 508.85L244.61 508.88L244.6 508.9L244.6 508.92L244.6 508.95L244.6 508.97L244.6 509L244.6 509.02L244.6 509.05L244.6 509.07L244.61 509.1L244.61 509.13L244.62 509.15L244.62 509.18L244.63 509.21L244.64 509.24L244.65 509.27L244.66 509.29L244.67 509.32L244.69 509.35L244.7 509.38L244.71 509.41L244.73 509.44L244.74 509.47L244.76 509.5L244.77 509.53L244.79 509.56L244.81 509.59L244.83 509.63L244.84 509.66L244.86 509.69L244.88 509.72L246.14 511.65L246.12 511.69L245.91 512.06L245.71 512.45L245.54 512.84L245.38 513.24L245.32 513.42L242.88 514L242.84 514.01L242.81 514.02L242.77 514.03L242.73 514.05L242.69 514.06L242.66 514.07L242.62 514.08L242.59 514.09L242.55 514.1L242.52 514.12L242.48 514.13L242.45 514.14L242.42 514.15L242.39 514.17L242.36 514.18L242.33 514.19L242.3 514.21L242.27 514.22L242.25 514.24L242.22 514.25L242.19 514.27L242.17 514.28L242.15 514.3L242.13 514.32L242.1 514.33L242.08 514.35L242.07 514.37L242.05 514.39L242.03 514.41L242.02 514.43L242 514.45L241.99 514.47L241.98 514.49L241.97 514.52L241.96 514.54L241.96 514.56L241.95 514.59L241.95 514.61L241.95 514.64L241.94 514.67L241.94 518.67L241.95 518.69L241.95 518.72L241.95 518.75L241.96 518.77L241.96 518.8L241.97 518.82L241.98 518.84L241.99 518.87L242 518.89L242.02 518.91L242.03 518.93L242.05 518.95L242.07 518.97L242.08 518.99L242.1 519.01L242.13 519.03L242.15 519.05L242.17 519.06L242.19 519.08L242.22 519.1L242.25 519.11L242.27 519.13L242.3 519.14L242.33 519.16L242.36 519.17L242.39 519.19L242.42 519.2L242.45 519.21L242.48 519.22L242.52 519.24L242.55 519.25L242.59 519.26L242.62 519.27L242.66 519.28L242.69 519.29L242.73 519.3L242.77 519.31L242.81 519.32L242.84 519.33L242.88 519.33L245.32 519.91L245.38 520.09L245.54 520.49L245.71 520.88L245.91 521.27L246.12 521.65L246.14 521.68L244.88 523.62L244.86 523.65L244.84 523.68L244.83 523.72L244.81 523.75L244.79 523.78L244.77 523.81L244.76 523.84L244.74 523.87L244.73 523.9L244.71 523.93L244.7 523.96L244.69 523.99L244.67 524.02L244.66 524.05L244.65 524.08L244.64 524.1L244.63 524.13L244.62 524.16L244.62 524.19L244.61 524.21L244.61 524.24L244.6 524.27L244.6 524.29L244.6 524.32L244.6 524.34L244.6 524.37L244.6 524.39L244.6 524.42L244.6 524.44L244.61 524.47L244.62 524.49L244.62 524.51L244.63 524.53L244.65 524.56L244.66 524.58L244.67 524.6L244.69 524.62L244.71 524.64L244.73 524.66L244.75 524.68L247.93 527.51L247.95 527.53L247.97 527.55L248 527.56L248.02 527.58L248.05 527.59L248.07 527.6L248.1 527.61L248.12 527.62L248.15 527.63L248.18 527.64L248.2 527.64L248.23 527.65L248.26 527.65L248.29 527.65L248.32 527.65L248.35 527.65L248.38 527.65L248.41 527.65L248.44 527.65L248.47 527.64L248.5 527.64L248.53 527.63L248.56 527.62L248.59 527.62L248.62 527.61L248.66 527.6L248.69 527.59L248.72 527.58L248.75 527.56L248.79 527.55L248.82 527.54L248.85 527.52L248.89 527.51L248.92 527.49L248.95 527.48L248.99 527.46L249.02 527.45L249.05 527.43L249.09 527.41L249.12 527.39L251.3 526.27L251.34 526.29L251.77 526.48L252.2 526.65L252.64 526.81L253.09 526.95L253.3 527L253.94 529.17L253.95 529.2L253.96 529.23L253.97 529.27L253.98 529.3L253.99 529.33L254.01 529.37L254.02 529.4L254.03 529.43L254.04 529.46L254.05 529.49L254.07 529.52L254.08 529.55L254.1 529.58L254.11 529.61L254.13 529.63L254.14 529.66L254.16 529.68L254.17 529.71L254.19 529.73L254.21 529.76L254.23 529.78L254.25 529.8L254.27 529.82L254.29 529.84L254.31 529.86L254.33 529.88L254.35 529.89L254.37 529.91L254.4 529.92L254.42 529.93L254.44 529.95L254.47 529.96L254.49 529.97L254.52 529.98L254.55 529.98L254.58 529.99L254.6 529.99L254.63 530L254.66 530L254.69 530L259.19 530L259.23 530L259.25 530ZM256.41 522.48L256.14 522.46L255.88 522.42L255.62 522.38L255.37 522.33L255.12 522.27L254.87 522.2L254.63 522.13L254.39 522.04L254.16 521.95L253.93 521.85L253.71 521.74L253.49 521.63L253.28 521.5L253.07 521.37L252.87 521.24L252.67 521.1L252.49 520.95L252.3 520.79L252.13 520.63L251.96 520.46L251.8 520.29L251.65 520.11L251.5 519.93L251.37 519.74L251.24 519.55L251.11 519.35L251 519.14L250.9 518.94L250.8 518.73L250.72 518.51L250.64 518.29L250.57 518.07L250.52 517.84L250.47 517.61L250.43 517.38L250.4 517.15L250.39 516.91L250.38 516.67L250.39 516.43L250.4 516.19L250.43 515.95L250.47 515.72L250.52 515.49L250.57 515.26L250.64 515.04L250.72 514.82L250.8 514.61L250.9 514.4L251 514.19L251.11 513.99L251.24 513.79L251.37 513.59L251.5 513.41L251.65 513.22L251.8 513.04L251.96 512.87L252.13 512.7L252.3 512.54L252.49 512.39L252.67 512.24L252.87 512.09L253.07 511.96L253.28 511.83L253.49 511.71L253.71 511.59L253.93 511.48L254.16 511.38L254.39 511.29L254.63 511.21L254.87 511.13L255.12 511.06L255.37 511L255.62 510.95L255.88 510.91L256.14 510.88L256.41 510.85L256.67 510.84L256.94 510.83L257.21 510.84L257.48 510.85L257.75 510.88L258.01 510.91L258.27 510.95L258.52 511L258.77 511.06L259.02 511.13L259.26 511.21L259.5 511.29L259.73 511.38L259.96 511.48L260.18 511.59L260.4 511.71L260.61 511.83L260.82 511.96L261.02 512.09L261.22 512.24L261.4 512.39L261.58 512.54L261.76 512.7L261.93 512.87L262.09 513.04L262.24 513.22L262.39 513.41L262.52 513.59L262.65 513.79L262.77 513.99L262.89 514.19L262.99 514.4L263.09 514.61L263.17 514.82L263.25 515.04L263.32 515.26L263.37 515.49L263.42 515.72L263.46 515.95L263.49 516.19L263.5 516.43L263.51 516.67L263.5 516.91L263.49 517.15L263.46 517.38L263.42 517.61L263.37 517.84L263.32 518.07L263.25 518.29L263.17 518.51L263.09 518.73L262.99 518.94L262.89 519.14L262.77 519.35L262.65 519.55L262.52 519.74L262.39 519.93L262.24 520.11L262.09 520.29L261.93 520.46L261.76 520.63L261.58 520.79L261.4 520.95L261.22 521.1L261.02 521.24L260.82 521.37L260.61 521.5L260.4 521.63L260.18 521.74L259.96 521.85L259.73 521.95L259.5 522.04L259.26 522.13L259.02 522.2L258.77 522.27L258.52 522.33L258.27 522.38L258.01 522.42L257.75 522.46L257.48 522.48L257.21 522.5L256.94 522.5L256.67 522.5L256.41 522.48Z" id="a1UIQTBy9"></path><path d="M557.31 530L557.34 529.99L557.37 529.99L557.39 529.98L557.42 529.98L557.45 529.97L557.47 529.96L557.49 529.95L557.52 529.93L557.54 529.92L557.56 529.91L557.58 529.89L557.6 529.88L557.62 529.86L557.64 529.84L557.66 529.82L557.68 529.8L557.7 529.78L557.72 529.76L557.73 529.73L557.75 529.71L557.77 529.68L557.78 529.66L557.8 529.63L557.81 529.61L557.83 529.58L557.84 529.55L557.86 529.52L557.87 529.49L557.88 529.46L557.9 529.43L557.91 529.4L557.92 529.37L557.94 529.33L557.95 529.3L557.96 529.27L557.97 529.23L557.99 529.2L558 529.17L558.65 527L558.85 526.95L559.3 526.81L559.74 526.65L560.18 526.48L560.6 526.29L560.64 526.27L562.82 527.4L562.86 527.42L562.89 527.43L562.93 527.45L562.97 527.46L563 527.48L563.04 527.49L563.07 527.51L563.1 527.52L563.14 527.53L563.17 527.55L563.21 527.56L563.24 527.57L563.27 527.58L563.3 527.59L563.34 527.6L563.37 527.61L563.4 527.62L563.43 527.63L563.46 527.63L563.49 527.64L563.52 527.64L563.55 527.65L563.58 527.65L563.61 527.65L563.64 527.65L563.67 527.65L563.69 527.65L563.72 527.65L563.75 527.64L563.77 527.64L563.8 527.63L563.83 527.63L563.85 527.62L563.88 527.61L563.9 527.6L563.92 527.58L563.95 527.57L563.97 527.55L563.99 527.54L564.02 527.52L567.2 524.69L567.22 524.67L567.24 524.65L567.26 524.63L567.27 524.61L567.29 524.58L567.3 524.56L567.31 524.54L567.32 524.52L567.33 524.49L567.34 524.47L567.35 524.45L567.35 524.42L567.35 524.4L567.36 524.37L567.36 524.34L567.36 524.32L567.36 524.29L567.35 524.27L567.35 524.24L567.35 524.21L567.34 524.18L567.33 524.16L567.33 524.13L567.32 524.1L567.31 524.07L567.3 524.04L567.29 524.01L567.27 523.98L567.26 523.96L567.25 523.93L567.23 523.9L567.21 523.87L567.2 523.84L567.18 523.81L567.16 523.78L567.14 523.75L567.13 523.72L567.11 523.69L567.09 523.66L567.07 523.63L565.8 521.69L565.83 521.65L566.04 521.27L566.23 520.88L566.41 520.49L566.57 520.09L566.63 519.91L569.06 519.33L569.1 519.33L569.14 519.32L569.18 519.31L569.21 519.3L569.25 519.29L569.29 519.28L569.32 519.27L569.36 519.26L569.39 519.25L569.43 519.24L569.46 519.22L569.49 519.21L569.53 519.2L569.56 519.19L569.59 519.17L569.62 519.16L569.64 519.14L569.67 519.13L569.7 519.11L569.73 519.1L569.75 519.08L569.77 519.06L569.8 519.05L569.82 519.03L569.84 519.01L569.86 518.99L569.88 518.97L569.9 518.95L569.91 518.93L569.93 518.91L569.94 518.89L569.95 518.87L569.96 518.84L569.97 518.82L569.98 518.8L569.99 518.77L569.99 518.75L570 518.72L570 518.69L570 518.67L570 514.67L570 514.64L570 514.61L569.99 514.59L569.99 514.56L569.98 514.54L569.97 514.52L569.96 514.49L569.95 514.47L569.94 514.45L569.93 514.43L569.91 514.41L569.9 514.39L569.88 514.37L569.86 514.35L569.84 514.33L569.82 514.32L569.8 514.3L569.77 514.28L569.75 514.27L569.73 514.25L569.7 514.24L569.67 514.22L569.64 514.21L569.62 514.19L569.59 514.18L569.56 514.17L569.53 514.15L569.49 514.14L569.46 514.13L569.43 514.12L569.39 514.1L569.36 514.09L569.32 514.08L569.29 514.07L569.25 514.06L569.21 514.05L569.18 514.03L569.14 514.02L569.1 514.01L569.06 514L566.63 513.42L566.57 513.24L566.41 512.84L566.23 512.45L566.04 512.06L565.83 511.69L565.8 511.65L567.07 509.71L567.09 509.68L567.11 509.65L567.13 509.62L567.14 509.59L567.16 509.56L567.18 509.53L567.2 509.5L567.21 509.47L567.23 509.44L567.25 509.42L567.26 509.39L567.27 509.36L567.29 509.33L567.3 509.3L567.31 509.27L567.32 509.24L567.33 509.21L567.33 509.19L567.34 509.16L567.35 509.13L567.35 509.1L567.35 509.08L567.36 509.05L567.36 509.02L567.36 509L567.36 508.97L567.35 508.95L567.35 508.92L567.35 508.9L567.34 508.87L567.33 508.85L567.32 508.82L567.31 508.8L567.3 508.78L567.29 508.76L567.27 508.73L567.26 508.71L567.24 508.69L567.22 508.67L567.2 508.65L564.02 505.82L563.99 505.81L563.97 505.79L563.95 505.77L563.92 505.76L563.9 505.75L563.88 505.73L563.85 505.72L563.83 505.72L563.8 505.71L563.77 505.7L563.75 505.7L563.72 505.69L563.69 505.69L563.67 505.69L563.64 505.69L563.61 505.69L563.58 505.69L563.55 505.69L563.52 505.7L563.49 505.7L563.46 505.71L563.43 505.72L563.4 505.72L563.37 505.73L563.34 505.74L563.3 505.75L563.27 505.76L563.24 505.77L563.21 505.78L563.17 505.79L563.14 505.81L563.1 505.82L563.07 505.83L563.04 505.85L563 505.86L562.97 505.88L562.93 505.89L562.89 505.91L562.86 505.93L562.82 505.94L560.64 507.06L560.6 507.04L560.18 506.86L559.74 506.68L559.3 506.53L558.85 506.39L558.65 506.33L558 504.17L557.99 504.13L557.97 504.1L557.96 504.06L557.95 504.03L557.94 504L557.92 503.97L557.91 503.93L557.9 503.9L557.88 503.87L557.87 503.84L557.86 503.81L557.84 503.78L557.83 503.76L557.81 503.73L557.8 503.7L557.78 503.67L557.77 503.65L557.75 503.62L557.73 503.6L557.72 503.58L557.7 503.56L557.68 503.53L557.66 503.51L557.64 503.49L557.62 503.48L557.6 503.46L557.58 503.44L557.56 503.43L557.54 503.41L557.52 503.4L557.49 503.39L557.47 503.38L557.45 503.37L557.42 503.36L557.39 503.35L557.37 503.34L557.34 503.34L557.31 503.34L557.28 503.33L557.25 503.33L552.75 503.33L552.72 503.33L552.69 503.34L552.66 503.34L552.63 503.34L552.6 503.35L552.58 503.36L552.55 503.37L552.52 503.38L552.5 503.39L552.48 503.4L552.45 503.41L552.43 503.43L552.41 503.44L552.38 503.46L552.36 503.48L552.34 503.49L552.32 503.51L552.3 503.53L552.28 503.56L552.26 503.58L552.25 503.6L552.23 503.62L552.21 503.65L552.2 503.67L552.18 503.7L552.17 503.73L552.15 503.76L552.14 503.78L552.12 503.81L552.11 503.84L552.1 503.87L552.08 503.9L552.07 503.93L552.06 503.97L552.05 504L552.04 504.03L552.03 504.06L552.02 504.1L552.01 504.13L552 504.17L551.35 506.33L551.15 506.39L550.7 506.53L550.26 506.68L549.82 506.86L549.4 507.04L549.35 507.07L547.18 505.95L547.14 505.93L547.11 505.91L547.08 505.9L547.04 505.88L547.01 505.86L546.98 505.85L546.94 505.83L546.91 505.82L546.88 505.8L546.84 505.79L546.81 505.78L546.78 505.77L546.74 505.75L546.71 505.74L546.68 505.73L546.65 505.73L546.62 505.72L546.58 505.71L546.55 505.71L546.52 505.7L546.49 505.7L546.46 505.69L546.43 505.69L546.4 505.69L546.37 505.69L546.34 505.69L546.31 505.69L546.29 505.7L546.26 505.7L546.23 505.71L546.2 505.71L546.18 505.72L546.15 505.73L546.13 505.74L546.1 505.75L546.08 505.77L546.05 505.78L546.03 505.8L546.01 505.81L545.98 505.83L542.8 508.66L542.78 508.68L542.76 508.7L542.74 508.72L542.73 508.74L542.71 508.76L542.7 508.79L542.69 508.81L542.68 508.83L542.67 508.85L542.66 508.88L542.66 508.9L542.66 508.92L542.65 508.95L542.65 508.97L542.65 509L542.65 509.02L542.65 509.05L542.66 509.07L542.66 509.1L542.67 509.13L542.67 509.15L542.68 509.18L542.69 509.21L542.7 509.24L542.71 509.27L542.72 509.29L542.73 509.32L542.74 509.35L542.76 509.38L542.77 509.41L542.78 509.44L542.8 509.47L542.81 509.5L542.83 509.53L542.85 509.56L542.86 509.59L542.88 509.63L542.9 509.66L542.92 509.69L542.93 509.72L544.19 511.65L544.17 511.69L543.96 512.06L543.77 512.45L543.59 512.84L543.43 513.24L543.37 513.42L540.94 514L540.9 514.01L540.86 514.02L540.82 514.03L540.79 514.05L540.75 514.06L540.71 514.07L540.68 514.08L540.64 514.09L540.61 514.1L540.57 514.12L540.54 514.13L540.51 514.14L540.47 514.15L540.44 514.17L540.41 514.18L540.38 514.19L540.36 514.21L540.33 514.22L540.3 514.24L540.27 514.25L540.25 514.27L540.23 514.28L540.2 514.3L540.18 514.32L540.16 514.33L540.14 514.35L540.12 514.37L540.1 514.39L540.09 514.41L540.07 514.43L540.06 514.45L540.05 514.47L540.04 514.49L540.03 514.52L540.02 514.54L540.01 514.56L540.01 514.59L540 514.61L540 514.64L540 514.67L540 518.67L540 518.69L540 518.72L540.01 518.75L540.01 518.77L540.02 518.8L540.03 518.82L540.04 518.84L540.05 518.87L540.06 518.89L540.07 518.91L540.09 518.93L540.1 518.95L540.12 518.97L540.14 518.99L540.16 519.01L540.18 519.03L540.2 519.05L540.23 519.06L540.25 519.08L540.27 519.1L540.3 519.11L540.33 519.13L540.36 519.14L540.38 519.16L540.41 519.17L540.44 519.19L540.47 519.2L540.51 519.21L540.54 519.22L540.57 519.24L540.61 519.25L540.64 519.26L540.68 519.27L540.71 519.28L540.75 519.29L540.79 519.3L540.82 519.31L540.86 519.32L540.9 519.33L540.94 519.33L543.37 519.91L543.43 520.09L543.59 520.49L543.77 520.88L543.96 521.27L544.17 521.65L544.2 521.68L542.93 523.62L542.92 523.65L542.9 523.68L542.88 523.72L542.86 523.75L542.85 523.78L542.83 523.81L542.81 523.84L542.8 523.87L542.78 523.9L542.77 523.93L542.76 523.96L542.74 523.99L542.73 524.02L542.72 524.05L542.71 524.08L542.7 524.1L542.69 524.13L542.68 524.16L542.67 524.19L542.67 524.21L542.66 524.24L542.66 524.27L542.65 524.29L542.65 524.32L542.65 524.34L542.65 524.37L542.65 524.39L542.66 524.42L542.66 524.44L542.66 524.47L542.67 524.49L542.68 524.51L542.69 524.53L542.7 524.56L542.71 524.58L542.73 524.6L542.74 524.62L542.76 524.64L542.78 524.66L542.8 524.68L545.98 527.51L546.01 527.53L546.03 527.55L546.05 527.56L546.08 527.58L546.1 527.59L546.13 527.6L546.15 527.61L546.18 527.62L546.2 527.63L546.23 527.64L546.26 527.64L546.29 527.65L546.31 527.65L546.34 527.65L546.37 527.65L546.4 527.65L546.43 527.65L546.46 527.65L546.49 527.65L546.52 527.64L546.55 527.64L546.58 527.63L546.62 527.62L546.65 527.62L546.68 527.61L546.71 527.6L546.74 527.59L546.78 527.58L546.81 527.56L546.84 527.55L546.88 527.54L546.91 527.52L546.94 527.51L546.98 527.49L547.01 527.48L547.04 527.46L547.08 527.45L547.11 527.43L547.14 527.41L547.18 527.39L549.36 526.27L549.4 526.29L549.82 526.48L550.26 526.65L550.7 526.81L551.15 526.95L551.35 527L552 529.17L552.01 529.2L552.02 529.23L552.03 529.27L552.04 529.3L552.05 529.33L552.06 529.37L552.07 529.4L552.08 529.43L552.1 529.46L552.11 529.49L552.12 529.52L552.14 529.55L552.15 529.58L552.17 529.61L552.18 529.63L552.2 529.66L552.21 529.68L552.23 529.71L552.25 529.73L552.26 529.76L552.28 529.78L552.3 529.8L552.32 529.82L552.34 529.84L552.36 529.86L552.38 529.88L552.41 529.89L552.43 529.91L552.45 529.92L552.48 529.93L552.5 529.95L552.52 529.96L552.55 529.97L552.58 529.98L552.6 529.98L552.63 529.99L552.66 529.99L552.69 530L552.72 530L552.75 530L557.25 530L557.28 530L557.31 530ZM554.46 522.48L554.2 522.46L553.94 522.42L553.68 522.38L553.42 522.33L553.17 522.27L552.93 522.2L552.68 522.13L552.45 522.04L552.21 521.95L551.98 521.85L551.76 521.74L551.54 521.63L551.33 521.5L551.12 521.37L550.92 521.24L550.73 521.1L550.54 520.95L550.36 520.79L550.18 520.63L550.02 520.46L549.86 520.29L549.7 520.11L549.56 519.93L549.42 519.74L549.29 519.55L549.17 519.35L549.06 519.14L548.95 518.94L548.86 518.73L548.77 518.51L548.7 518.29L548.63 518.07L548.57 517.84L548.52 517.61L548.49 517.38L548.46 517.15L548.44 516.91L548.44 516.67L548.44 516.43L548.46 516.19L548.49 515.95L548.52 515.72L548.57 515.49L548.63 515.26L548.7 515.04L548.77 514.82L548.86 514.61L548.95 514.4L549.06 514.19L549.17 513.99L549.29 513.79L549.42 513.59L549.56 513.41L549.7 513.22L549.86 513.04L550.02 512.87L550.18 512.7L550.36 512.54L550.54 512.39L550.73 512.24L550.92 512.09L551.12 511.96L551.33 511.83L551.54 511.71L551.76 511.59L551.98 511.48L552.21 511.38L552.45 511.29L552.68 511.21L552.93 511.13L553.17 511.06L553.42 511L553.68 510.95L553.94 510.91L554.2 510.88L554.46 510.85L554.73 510.84L555 510.83L555.27 510.84L555.54 510.85L555.8 510.88L556.06 510.91L556.32 510.95L556.58 511L556.83 511.06L557.07 511.13L557.32 511.21L557.55 511.29L557.79 511.38L558.02 511.48L558.24 511.59L558.46 511.71L558.67 511.83L558.88 511.96L559.08 512.09L559.27 512.24L559.46 512.39L559.64 512.54L559.82 512.7L559.98 512.87L560.14 513.04L560.3 513.22L560.44 513.41L560.58 513.59L560.71 513.79L560.83 513.99L560.94 514.19L561.05 514.4L561.14 514.61L561.23 514.82L561.3 515.04L561.37 515.26L561.43 515.49L561.48 515.72L561.51 515.95L561.54 516.19L561.56 516.43L561.56 516.67L561.56 516.91L561.54 517.15L561.51 517.38L561.48 517.61L561.43 517.84L561.37 518.07L561.3 518.29L561.23 518.51L561.14 518.73L561.05 518.94L560.94 519.14L560.83 519.35L560.71 519.55L560.58 519.74L560.44 519.93L560.3 520.11L560.14 520.29L559.98 520.46L559.82 520.63L559.64 520.79L559.46 520.95L559.27 521.1L559.08 521.24L558.88 521.37L558.67 521.5L558.46 521.63L558.24 521.74L558.02 521.85L557.79 521.95L557.55 522.04L557.32 522.13L557.07 522.2L556.83 522.27L556.58 522.33L556.32 522.38L556.06 522.42L555.8 522.46L555.54 522.48L555.27 522.5L555 522.5L554.73 522.5L554.46 522.48Z" id="cbr77UI19"></path><path d="M330.09 530L330.12 529.99L330.14 529.99L330.17 529.98L330.2 529.98L330.22 529.97L330.25 529.96L330.27 529.95L330.3 529.93L330.32 529.92L330.34 529.91L330.36 529.89L330.38 529.88L330.4 529.86L330.42 529.84L330.44 529.82L330.46 529.8L330.48 529.78L330.5 529.76L330.51 529.73L330.53 529.71L330.54 529.68L330.56 529.66L330.58 529.63L330.59 529.61L330.61 529.58L330.62 529.55L330.63 529.52L330.65 529.49L330.66 529.46L330.68 529.43L330.69 529.4L330.7 529.37L330.71 529.33L330.73 529.3L330.74 529.27L330.75 529.23L330.77 529.2L330.78 529.17L331.43 527L331.63 526.95L332.08 526.81L332.52 526.65L332.95 526.48L333.38 526.29L333.41 526.27L335.6 527.4L335.64 527.42L335.67 527.43L335.71 527.45L335.74 527.46L335.78 527.48L335.81 527.49L335.85 527.51L335.88 527.52L335.92 527.53L335.95 527.55L335.98 527.56L336.02 527.57L336.05 527.58L336.08 527.59L336.11 527.6L336.15 527.61L336.18 527.62L336.21 527.63L336.24 527.63L336.27 527.64L336.3 527.64L336.33 527.65L336.36 527.65L336.39 527.65L336.42 527.65L336.44 527.65L336.47 527.65L336.5 527.65L336.53 527.64L336.55 527.64L336.58 527.63L336.6 527.63L336.63 527.62L336.65 527.61L336.68 527.6L336.7 527.58L336.73 527.57L336.75 527.55L336.77 527.54L336.79 527.52L339.98 524.69L340 524.67L340.02 524.65L340.03 524.63L340.05 524.61L340.07 524.58L340.08 524.56L340.09 524.54L340.1 524.52L340.11 524.49L340.12 524.47L340.12 524.45L340.13 524.42L340.13 524.4L340.13 524.37L340.14 524.34L340.14 524.32L340.13 524.29L340.13 524.27L340.13 524.24L340.12 524.21L340.12 524.18L340.11 524.16L340.1 524.13L340.1 524.1L340.09 524.07L340.07 524.04L340.06 524.01L340.05 523.98L340.04 523.96L340.02 523.93L340.01 523.9L339.99 523.87L339.98 523.84L339.96 523.81L339.94 523.78L339.92 523.75L339.9 523.72L339.88 523.69L339.86 523.66L339.84 523.63L338.58 521.69L338.6 521.65L338.81 521.27L339.01 520.88L339.18 520.49L339.34 520.09L339.41 519.91L341.84 519.33L341.88 519.33L341.92 519.32L341.95 519.31L341.99 519.3L342.03 519.29L342.07 519.28L342.1 519.27L342.14 519.26L342.17 519.25L342.21 519.24L342.24 519.22L342.27 519.21L342.3 519.2L342.33 519.19L342.36 519.17L342.39 519.16L342.42 519.14L342.45 519.13L342.48 519.11L342.5 519.1L342.53 519.08L342.55 519.06L342.57 519.05L342.6 519.03L342.62 519.01L342.64 518.99L342.66 518.97L342.67 518.95L342.69 518.93L342.7 518.91L342.72 518.89L342.73 518.87L342.74 518.84L342.75 518.82L342.76 518.8L342.77 518.77L342.77 518.75L342.77 518.72L342.78 518.69L342.78 518.67L342.78 514.67L342.78 514.64L342.77 514.61L342.77 514.59L342.77 514.56L342.76 514.54L342.75 514.52L342.74 514.49L342.73 514.47L342.72 514.45L342.7 514.43L342.69 514.41L342.67 514.39L342.66 514.37L342.64 514.35L342.62 514.33L342.6 514.32L342.57 514.3L342.55 514.28L342.53 514.27L342.5 514.25L342.48 514.24L342.45 514.22L342.42 514.21L342.39 514.19L342.36 514.18L342.33 514.17L342.3 514.15L342.27 514.14L342.24 514.13L342.21 514.12L342.17 514.1L342.14 514.09L342.1 514.08L342.07 514.07L342.03 514.06L341.99 514.05L341.95 514.03L341.92 514.02L341.88 514.01L341.84 514L339.41 513.42L339.34 513.24L339.18 512.84L339.01 512.45L338.81 512.06L338.6 511.69L338.58 511.65L339.84 509.71L339.86 509.68L339.88 509.65L339.9 509.62L339.92 509.59L339.94 509.56L339.96 509.53L339.98 509.5L339.99 509.47L340.01 509.44L340.02 509.42L340.04 509.39L340.05 509.36L340.06 509.33L340.07 509.3L340.09 509.27L340.1 509.24L340.1 509.21L340.11 509.19L340.12 509.16L340.12 509.13L340.13 509.1L340.13 509.08L340.13 509.05L340.14 509.02L340.14 509L340.13 508.97L340.13 508.95L340.13 508.92L340.12 508.9L340.12 508.87L340.11 508.85L340.1 508.82L340.09 508.8L340.08 508.78L340.07 508.76L340.05 508.73L340.03 508.71L340.02 508.69L340 508.67L339.98 508.65L336.79 505.82L336.77 505.81L336.75 505.79L336.73 505.77L336.7 505.76L336.68 505.75L336.65 505.73L336.63 505.72L336.6 505.72L336.58 505.71L336.55 505.7L336.53 505.7L336.5 505.69L336.47 505.69L336.44 505.69L336.42 505.69L336.39 505.69L336.36 505.69L336.33 505.69L336.3 505.7L336.27 505.7L336.24 505.71L336.21 505.72L336.18 505.72L336.15 505.73L336.11 505.74L336.08 505.75L336.05 505.76L336.02 505.77L335.98 505.78L335.95 505.79L335.92 505.81L335.88 505.82L335.85 505.83L335.81 505.85L335.78 505.86L335.74 505.88L335.71 505.89L335.67 505.91L335.64 505.93L335.6 505.94L333.42 507.06L333.38 507.04L332.95 506.86L332.52 506.68L332.08 506.53L331.63 506.39L331.43 506.33L330.78 504.17L330.77 504.13L330.75 504.1L330.74 504.06L330.73 504.03L330.71 504L330.7 503.97L330.69 503.93L330.68 503.9L330.66 503.87L330.65 503.84L330.63 503.81L330.62 503.78L330.61 503.76L330.59 503.73L330.58 503.7L330.56 503.67L330.54 503.65L330.53 503.62L330.51 503.6L330.5 503.58L330.48 503.56L330.46 503.53L330.44 503.51L330.42 503.49L330.4 503.48L330.38 503.46L330.36 503.44L330.34 503.43L330.32 503.41L330.3 503.4L330.27 503.39L330.25 503.38L330.22 503.37L330.2 503.36L330.17 503.35L330.14 503.34L330.12 503.34L330.09 503.34L330.06 503.33L330.03 503.33L325.53 503.33L325.5 503.33L325.47 503.34L325.44 503.34L325.41 503.34L325.38 503.35L325.35 503.36L325.33 503.37L325.3 503.38L325.28 503.39L325.25 503.4L325.23 503.41L325.21 503.43L325.18 503.44L325.16 503.46L325.14 503.48L325.12 503.49L325.1 503.51L325.08 503.53L325.06 503.56L325.04 503.58L325.02 503.6L325.01 503.62L324.99 503.65L324.97 503.67L324.96 503.7L324.94 503.73L324.93 503.76L324.91 503.78L324.9 503.81L324.89 503.84L324.87 503.87L324.86 503.9L324.85 503.93L324.84 503.97L324.83 504L324.82 504.03L324.81 504.06L324.8 504.1L324.79 504.13L324.78 504.17L324.13 506.33L323.93 506.39L323.48 506.53L323.03 506.68L322.6 506.86L322.18 507.04L322.13 507.07L319.96 505.95L319.92 505.93L319.89 505.91L319.85 505.9L319.82 505.88L319.79 505.86L319.75 505.85L319.72 505.83L319.69 505.82L319.65 505.8L319.62 505.79L319.59 505.78L319.55 505.77L319.52 505.75L319.49 505.74L319.46 505.73L319.42 505.73L319.39 505.72L319.36 505.71L319.33 505.71L319.3 505.7L319.27 505.7L319.24 505.69L319.21 505.69L319.18 505.69L319.15 505.69L319.12 505.69L319.09 505.69L319.06 505.7L319.04 505.7L319.01 505.71L318.98 505.71L318.96 505.72L318.93 505.73L318.9 505.74L318.88 505.75L318.85 505.77L318.83 505.78L318.81 505.8L318.78 505.81L318.76 505.83L315.58 508.66L315.56 508.68L315.54 508.7L315.52 508.72L315.51 508.74L315.49 508.76L315.48 508.79L315.47 508.81L315.46 508.83L315.45 508.85L315.44 508.88L315.44 508.9L315.43 508.92L315.43 508.95L315.43 508.97L315.43 509L315.43 509.02L315.43 509.05L315.43 509.07L315.44 509.1L315.44 509.13L315.45 509.15L315.46 509.18L315.47 509.21L315.48 509.24L315.49 509.27L315.5 509.29L315.51 509.32L315.52 509.35L315.53 509.38L315.55 509.41L315.56 509.44L315.58 509.47L315.59 509.5L315.61 509.53L315.62 509.56L315.64 509.59L315.66 509.63L315.68 509.66L315.69 509.69L315.71 509.72L316.97 511.65L316.95 511.69L316.74 512.06L316.55 512.45L316.37 512.84L316.21 513.24L316.15 513.42L313.72 514L313.68 514.01L313.64 514.02L313.6 514.03L313.56 514.05L313.53 514.06L313.49 514.07L313.45 514.08L313.42 514.09L313.38 514.1L313.35 514.12L313.32 514.13L313.28 514.14L313.25 514.15L313.22 514.17L313.19 514.18L313.16 514.19L313.13 514.21L313.11 514.22L313.08 514.24L313.05 514.25L313.03 514.27L313 514.28L312.98 514.3L312.96 514.32L312.94 514.33L312.92 514.35L312.9 514.37L312.88 514.39L312.87 514.41L312.85 514.43L312.84 514.45L312.83 514.47L312.81 514.49L312.81 514.52L312.8 514.54L312.79 514.56L312.78 514.59L312.78 514.61L312.78 514.64L312.78 514.67L312.78 518.67L312.78 518.69L312.78 518.72L312.78 518.75L312.79 518.77L312.8 518.8L312.81 518.82L312.81 518.84L312.83 518.87L312.84 518.89L312.85 518.91L312.87 518.93L312.88 518.95L312.9 518.97L312.92 518.99L312.94 519.01L312.96 519.03L312.98 519.05L313 519.06L313.03 519.08L313.05 519.1L313.08 519.11L313.11 519.13L313.13 519.14L313.16 519.16L313.19 519.17L313.22 519.19L313.25 519.2L313.28 519.21L313.32 519.22L313.35 519.24L313.38 519.25L313.42 519.26L313.45 519.27L313.49 519.28L313.53 519.29L313.56 519.3L313.6 519.31L313.64 519.32L313.68 519.33L313.72 519.33L316.15 519.91L316.21 520.09L316.37 520.49L316.55 520.88L316.74 521.27L316.95 521.65L316.97 521.68L315.71 523.62L315.69 523.65L315.68 523.68L315.66 523.72L315.64 523.75L315.62 523.78L315.61 523.81L315.59 523.84L315.58 523.87L315.56 523.9L315.55 523.93L315.53 523.96L315.52 523.99L315.51 524.02L315.5 524.05L315.49 524.08L315.48 524.1L315.47 524.13L315.46 524.16L315.45 524.19L315.44 524.21L315.44 524.24L315.43 524.27L315.43 524.29L315.43 524.32L315.43 524.34L315.43 524.37L315.43 524.39L315.43 524.42L315.44 524.44L315.44 524.47L315.45 524.49L315.46 524.51L315.47 524.53L315.48 524.56L315.49 524.58L315.51 524.6L315.52 524.62L315.54 524.64L315.56 524.66L315.58 524.68L318.76 527.51L318.78 527.53L318.81 527.55L318.83 527.56L318.85 527.58L318.88 527.59L318.9 527.6L318.93 527.61L318.96 527.62L318.98 527.63L319.01 527.64L319.04 527.64L319.06 527.65L319.09 527.65L319.12 527.65L319.15 527.65L319.18 527.65L319.21 527.65L319.24 527.65L319.27 527.65L319.3 527.64L319.33 527.64L319.36 527.63L319.39 527.62L319.42 527.62L319.46 527.61L319.49 527.6L319.52 527.59L319.55 527.58L319.59 527.56L319.62 527.55L319.65 527.54L319.69 527.52L319.72 527.51L319.75 527.49L319.79 527.48L319.82 527.46L319.85 527.45L319.89 527.43L319.92 527.41L319.96 527.39L322.13 526.27L322.18 526.29L322.6 526.48L323.03 526.65L323.48 526.81L323.93 526.95L324.13 527L324.78 529.17L324.79 529.2L324.8 529.23L324.81 529.27L324.82 529.3L324.83 529.33L324.84 529.37L324.85 529.4L324.86 529.43L324.87 529.46L324.89 529.49L324.9 529.52L324.91 529.55L324.93 529.58L324.94 529.61L324.96 529.63L324.97 529.66L324.99 529.68L325.01 529.71L325.02 529.73L325.04 529.76L325.06 529.78L325.08 529.8L325.1 529.82L325.12 529.84L325.14 529.86L325.16 529.88L325.18 529.89L325.21 529.91L325.23 529.92L325.25 529.93L325.28 529.95L325.3 529.96L325.33 529.97L325.35 529.98L325.38 529.98L325.41 529.99L325.44 529.99L325.47 530L325.5 530L325.53 530L330.03 530L330.06 530L330.09 530ZM327.24 522.48L326.97 522.46L326.71 522.42L326.46 522.38L326.2 522.33L325.95 522.27L325.7 522.2L325.46 522.13L325.22 522.04L324.99 521.95L324.76 521.85L324.54 521.74L324.32 521.63L324.11 521.5L323.9 521.37L323.7 521.24L323.51 521.1L323.32 520.95L323.14 520.79L322.96 520.63L322.79 520.46L322.63 520.29L322.48 520.11L322.34 519.93L322.2 519.74L322.07 519.55L321.95 519.35L321.84 519.14L321.73 518.94L321.64 518.73L321.55 518.51L321.47 518.29L321.41 518.07L321.35 517.84L321.3 517.61L321.26 517.38L321.24 517.15L321.22 516.91L321.22 516.67L321.22 516.43L321.24 516.19L321.26 515.95L321.3 515.72L321.35 515.49L321.41 515.26L321.47 515.04L321.55 514.82L321.64 514.61L321.73 514.4L321.84 514.19L321.95 513.99L322.07 513.79L322.2 513.59L322.34 513.41L322.48 513.22L322.63 513.04L322.79 512.87L322.96 512.7L323.14 512.54L323.32 512.39L323.51 512.24L323.7 512.09L323.9 511.96L324.11 511.83L324.32 511.71L324.54 511.59L324.76 511.48L324.99 511.38L325.22 511.29L325.46 511.21L325.7 511.13L325.95 511.06L326.2 511L326.46 510.95L326.71 510.91L326.97 510.88L327.24 510.85L327.51 510.84L327.78 510.83L328.05 510.84L328.32 510.85L328.58 510.88L328.84 510.91L329.1 510.95L329.35 511L329.61 511.06L329.85 511.13L330.09 511.21L330.33 511.29L330.57 511.38L330.79 511.48L331.02 511.59L331.23 511.71L331.45 511.83L331.65 511.96L331.85 512.09L332.05 512.24L332.24 512.39L332.42 512.54L332.59 512.7L332.76 512.87L332.92 513.04L333.07 513.22L333.22 513.41L333.36 513.59L333.49 513.79L333.61 513.99L333.72 514.19L333.82 514.4L333.92 514.61L334.01 514.82L334.08 515.04L334.15 515.26L334.21 515.49L334.25 515.72L334.29 515.95L334.32 516.19L334.33 516.43L334.34 516.67L334.33 516.91L334.32 517.15L334.29 517.38L334.25 517.61L334.21 517.84L334.15 518.07L334.08 518.29L334.01 518.51L333.92 518.73L333.82 518.94L333.72 519.14L333.61 519.35L333.49 519.55L333.36 519.74L333.22 519.93L333.07 520.11L332.92 520.29L332.76 520.46L332.59 520.63L332.42 520.79L332.24 520.95L332.05 521.1L331.85 521.24L331.65 521.37L331.45 521.5L331.23 521.63L331.02 521.74L330.79 521.85L330.57 521.95L330.33 522.04L330.09 522.13L329.85 522.2L329.61 522.27L329.35 522.33L329.1 522.38L328.84 522.42L328.58 522.46L328.32 522.48L328.05 522.5L327.78 522.5L327.51 522.5L327.24 522.48Z" id="c3lfxoAJbJ"></path><path d="M403.84 530L403.87 529.99L403.89 529.99L403.92 529.98L403.95 529.98L403.97 529.97L404 529.96L404.02 529.95L404.05 529.93L404.07 529.92L404.09 529.91L404.11 529.89L404.13 529.88L404.15 529.86L404.17 529.84L404.19 529.82L404.21 529.8L404.23 529.78L404.25 529.76L404.26 529.73L404.28 529.71L404.29 529.68L404.31 529.66L404.33 529.63L404.34 529.61L404.36 529.58L404.37 529.55L404.38 529.52L404.4 529.49L404.41 529.46L404.43 529.43L404.44 529.4L404.45 529.37L404.46 529.33L404.48 529.3L404.49 529.27L404.5 529.23L404.52 529.2L404.53 529.17L405.18 527L405.38 526.95L405.83 526.81L406.27 526.65L406.7 526.48L407.13 526.29L407.16 526.27L409.35 527.4L409.39 527.42L409.42 527.43L409.46 527.45L409.49 527.46L409.53 527.48L409.56 527.49L409.6 527.51L409.63 527.52L409.67 527.53L409.7 527.55L409.73 527.56L409.77 527.57L409.8 527.58L409.83 527.59L409.86 527.6L409.9 527.61L409.93 527.62L409.96 527.63L409.99 527.63L410.02 527.64L410.05 527.64L410.08 527.65L410.11 527.65L410.14 527.65L410.17 527.65L410.19 527.65L410.22 527.65L410.25 527.65L410.28 527.64L410.3 527.64L410.33 527.63L410.35 527.63L410.38 527.62L410.4 527.61L410.43 527.6L410.45 527.58L410.48 527.57L410.5 527.55L410.52 527.54L410.54 527.52L413.73 524.69L413.75 524.67L413.77 524.65L413.78 524.63L413.8 524.61L413.82 524.58L413.83 524.56L413.84 524.54L413.85 524.52L413.86 524.49L413.87 524.47L413.87 524.45L413.88 524.42L413.88 524.4L413.88 524.37L413.89 524.34L413.89 524.32L413.88 524.29L413.88 524.27L413.88 524.24L413.87 524.21L413.87 524.18L413.86 524.16L413.85 524.13L413.85 524.1L413.84 524.07L413.82 524.04L413.81 524.01L413.8 523.98L413.79 523.96L413.77 523.93L413.76 523.9L413.74 523.87L413.73 523.84L413.71 523.81L413.69 523.78L413.67 523.75L413.65 523.72L413.63 523.69L413.61 523.66L413.59 523.63L412.33 521.69L412.35 521.65L412.56 521.27L412.76 520.88L412.93 520.49L413.09 520.09L413.16 519.91L415.59 519.33L415.63 519.33L415.67 519.32L415.7 519.31L415.74 519.3L415.78 519.29L415.82 519.28L415.85 519.27L415.89 519.26L415.92 519.25L415.96 519.24L415.99 519.22L416.02 519.21L416.05 519.2L416.08 519.19L416.11 519.17L416.14 519.16L416.17 519.14L416.2 519.13L416.23 519.11L416.25 519.1L416.28 519.08L416.3 519.06L416.32 519.05L416.35 519.03L416.37 519.01L416.39 518.99L416.41 518.97L416.42 518.95L416.44 518.93L416.45 518.91L416.47 518.89L416.48 518.87L416.49 518.84L416.5 518.82L416.51 518.8L416.52 518.77L416.52 518.75L416.52 518.72L416.53 518.69L416.53 518.67L416.53 514.67L416.53 514.64L416.52 514.61L416.52 514.59L416.52 514.56L416.51 514.54L416.5 514.52L416.49 514.49L416.48 514.47L416.47 514.45L416.45 514.43L416.44 514.41L416.42 514.39L416.41 514.37L416.39 514.35L416.37 514.33L416.35 514.32L416.32 514.3L416.3 514.28L416.28 514.27L416.25 514.25L416.23 514.24L416.2 514.22L416.17 514.21L416.14 514.19L416.11 514.18L416.08 514.17L416.05 514.15L416.02 514.14L415.99 514.13L415.96 514.12L415.92 514.1L415.89 514.09L415.85 514.08L415.82 514.07L415.78 514.06L415.74 514.05L415.7 514.03L415.67 514.02L415.63 514.01L415.59 514L413.16 513.42L413.09 513.24L412.93 512.84L412.76 512.45L412.56 512.06L412.35 511.69L412.33 511.65L413.59 509.71L413.61 509.68L413.63 509.65L413.65 509.62L413.67 509.59L413.69 509.56L413.71 509.53L413.73 509.5L413.74 509.47L413.76 509.44L413.77 509.42L413.79 509.39L413.8 509.36L413.81 509.33L413.82 509.3L413.84 509.27L413.85 509.24L413.85 509.21L413.86 509.19L413.87 509.16L413.87 509.13L413.88 509.1L413.88 509.08L413.88 509.05L413.89 509.02L413.89 509L413.88 508.97L413.88 508.95L413.88 508.92L413.87 508.9L413.87 508.87L413.86 508.85L413.85 508.82L413.84 508.8L413.83 508.78L413.82 508.76L413.8 508.73L413.78 508.71L413.77 508.69L413.75 508.67L413.73 508.65L410.54 505.82L410.52 505.81L410.5 505.79L410.48 505.77L410.45 505.76L410.43 505.75L410.4 505.73L410.38 505.72L410.35 505.72L410.33 505.71L410.3 505.7L410.28 505.7L410.25 505.69L410.22 505.69L410.19 505.69L410.17 505.69L410.14 505.69L410.11 505.69L410.08 505.69L410.05 505.7L410.02 505.7L409.99 505.71L409.96 505.72L409.93 505.72L409.9 505.73L409.86 505.74L409.83 505.75L409.8 505.76L409.77 505.77L409.73 505.78L409.7 505.79L409.67 505.81L409.63 505.82L409.6 505.83L409.56 505.85L409.53 505.86L409.49 505.88L409.46 505.89L409.42 505.91L409.39 505.93L409.35 505.94L407.17 507.06L407.13 507.04L406.7 506.86L406.27 506.68L405.83 506.53L405.38 506.39L405.18 506.33L404.53 504.17L404.52 504.13L404.5 504.1L404.49 504.06L404.48 504.03L404.46 504L404.45 503.97L404.44 503.93L404.43 503.9L404.41 503.87L404.4 503.84L404.38 503.81L404.37 503.78L404.36 503.76L404.34 503.73L404.33 503.7L404.31 503.67L404.29 503.65L404.28 503.62L404.26 503.6L404.25 503.58L404.23 503.56L404.21 503.53L404.19 503.51L404.17 503.49L404.15 503.48L404.13 503.46L404.11 503.44L404.09 503.43L404.07 503.41L404.05 503.4L404.02 503.39L404 503.38L403.97 503.37L403.95 503.36L403.92 503.35L403.89 503.34L403.87 503.34L403.84 503.34L403.81 503.33L403.78 503.33L399.28 503.33L399.25 503.33L399.22 503.34L399.19 503.34L399.16 503.34L399.13 503.35L399.1 503.36L399.08 503.37L399.05 503.38L399.03 503.39L399 503.4L398.98 503.41L398.96 503.43L398.93 503.44L398.91 503.46L398.89 503.48L398.87 503.49L398.85 503.51L398.83 503.53L398.81 503.56L398.79 503.58L398.77 503.6L398.76 503.62L398.74 503.65L398.72 503.67L398.71 503.7L398.69 503.73L398.68 503.76L398.66 503.78L398.65 503.81L398.64 503.84L398.62 503.87L398.61 503.9L398.6 503.93L398.59 503.97L398.58 504L398.57 504.03L398.56 504.06L398.55 504.1L398.54 504.13L398.53 504.17L397.88 506.33L397.68 506.39L397.23 506.53L396.78 506.68L396.35 506.86L395.93 507.04L395.88 507.07L393.71 505.95L393.67 505.93L393.64 505.91L393.6 505.9L393.57 505.88L393.54 505.86L393.5 505.85L393.47 505.83L393.44 505.82L393.4 505.8L393.37 505.79L393.34 505.78L393.3 505.77L393.27 505.75L393.24 505.74L393.21 505.73L393.17 505.73L393.14 505.72L393.11 505.71L393.08 505.71L393.05 505.7L393.02 505.7L392.99 505.69L392.96 505.69L392.93 505.69L392.9 505.69L392.87 505.69L392.84 505.69L392.81 505.7L392.79 505.7L392.76 505.71L392.73 505.71L392.71 505.72L392.68 505.73L392.65 505.74L392.63 505.75L392.6 505.77L392.58 505.78L392.56 505.8L392.53 505.81L392.51 505.83L389.33 508.66L389.31 508.68L389.29 508.7L389.27 508.72L389.26 508.74L389.24 508.76L389.23 508.79L389.22 508.81L389.21 508.83L389.2 508.85L389.19 508.88L389.19 508.9L389.18 508.92L389.18 508.95L389.18 508.97L389.18 509L389.18 509.02L389.18 509.05L389.18 509.07L389.19 509.1L389.19 509.13L389.2 509.15L389.21 509.18L389.22 509.21L389.23 509.24L389.24 509.27L389.25 509.29L389.26 509.32L389.27 509.35L389.28 509.38L389.3 509.41L389.31 509.44L389.33 509.47L389.34 509.5L389.36 509.53L389.37 509.56L389.39 509.59L389.41 509.63L389.43 509.66L389.44 509.69L389.46 509.72L390.72 511.65L390.7 511.69L390.49 512.06L390.3 512.45L390.12 512.84L389.96 513.24L389.9 513.42L387.47 514L387.43 514.01L387.39 514.02L387.35 514.03L387.31 514.05L387.28 514.06L387.24 514.07L387.2 514.08L387.17 514.09L387.13 514.1L387.1 514.12L387.07 514.13L387.03 514.14L387 514.15L386.97 514.17L386.94 514.18L386.91 514.19L386.88 514.21L386.86 514.22L386.83 514.24L386.8 514.25L386.78 514.27L386.75 514.28L386.73 514.3L386.71 514.32L386.69 514.33L386.67 514.35L386.65 514.37L386.63 514.39L386.62 514.41L386.6 514.43L386.59 514.45L386.58 514.47L386.56 514.49L386.56 514.52L386.55 514.54L386.54 514.56L386.53 514.59L386.53 514.61L386.53 514.64L386.53 514.67L386.53 518.67L386.53 518.69L386.53 518.72L386.53 518.75L386.54 518.77L386.55 518.8L386.56 518.82L386.56 518.84L386.58 518.87L386.59 518.89L386.6 518.91L386.62 518.93L386.63 518.95L386.65 518.97L386.67 518.99L386.69 519.01L386.71 519.03L386.73 519.05L386.75 519.06L386.78 519.08L386.8 519.1L386.83 519.11L386.86 519.13L386.88 519.14L386.91 519.16L386.94 519.17L386.97 519.19L387 519.2L387.03 519.21L387.07 519.22L387.1 519.24L387.13 519.25L387.17 519.26L387.2 519.27L387.24 519.28L387.28 519.29L387.31 519.3L387.35 519.31L387.39 519.32L387.43 519.33L387.47 519.33L389.9 519.91L389.96 520.09L390.12 520.49L390.3 520.88L390.49 521.27L390.7 521.65L390.72 521.68L389.46 523.62L389.44 523.65L389.43 523.68L389.41 523.72L389.39 523.75L389.37 523.78L389.36 523.81L389.34 523.84L389.33 523.87L389.31 523.9L389.3 523.93L389.28 523.96L389.27 523.99L389.26 524.02L389.25 524.05L389.24 524.08L389.23 524.1L389.22 524.13L389.21 524.16L389.2 524.19L389.19 524.21L389.19 524.24L389.18 524.27L389.18 524.29L389.18 524.32L389.18 524.34L389.18 524.37L389.18 524.39L389.18 524.42L389.19 524.44L389.19 524.47L389.2 524.49L389.21 524.51L389.22 524.53L389.23 524.56L389.24 524.58L389.26 524.6L389.27 524.62L389.29 524.64L389.31 524.66L389.33 524.68L392.51 527.51L392.53 527.53L392.56 527.55L392.58 527.56L392.6 527.58L392.63 527.59L392.65 527.6L392.68 527.61L392.71 527.62L392.73 527.63L392.76 527.64L392.79 527.64L392.81 527.65L392.84 527.65L392.87 527.65L392.9 527.65L392.93 527.65L392.96 527.65L392.99 527.65L393.02 527.65L393.05 527.64L393.08 527.64L393.11 527.63L393.14 527.62L393.17 527.62L393.21 527.61L393.24 527.6L393.27 527.59L393.3 527.58L393.34 527.56L393.37 527.55L393.4 527.54L393.44 527.52L393.47 527.51L393.5 527.49L393.54 527.48L393.57 527.46L393.6 527.45L393.64 527.43L393.67 527.41L393.71 527.39L395.88 526.27L395.93 526.29L396.35 526.48L396.78 526.65L397.23 526.81L397.68 526.95L397.88 527L398.53 529.17L398.54 529.2L398.55 529.23L398.56 529.27L398.57 529.3L398.58 529.33L398.59 529.37L398.6 529.4L398.61 529.43L398.62 529.46L398.64 529.49L398.65 529.52L398.66 529.55L398.68 529.58L398.69 529.61L398.71 529.63L398.72 529.66L398.74 529.68L398.76 529.71L398.77 529.73L398.79 529.76L398.81 529.78L398.83 529.8L398.85 529.82L398.87 529.84L398.89 529.86L398.91 529.88L398.93 529.89L398.96 529.91L398.98 529.92L399 529.93L399.03 529.95L399.05 529.96L399.08 529.97L399.1 529.98L399.13 529.98L399.16 529.99L399.19 529.99L399.22 530L399.25 530L399.28 530L403.78 530L403.81 530L403.84 530ZM400.99 522.48L400.72 522.46L400.46 522.42L400.21 522.38L399.95 522.33L399.7 522.27L399.45 522.2L399.21 522.13L398.97 522.04L398.74 521.95L398.51 521.85L398.29 521.74L398.07 521.63L397.86 521.5L397.65 521.37L397.45 521.24L397.26 521.1L397.07 520.95L396.89 520.79L396.71 520.63L396.54 520.46L396.38 520.29L396.23 520.11L396.09 519.93L395.95 519.74L395.82 519.55L395.7 519.35L395.59 519.14L395.48 518.94L395.39 518.73L395.3 518.51L395.22 518.29L395.16 518.07L395.1 517.84L395.05 517.61L395.01 517.38L394.99 517.15L394.97 516.91L394.97 516.67L394.97 516.43L394.99 516.19L395.01 515.95L395.05 515.72L395.1 515.49L395.16 515.26L395.22 515.04L395.3 514.82L395.39 514.61L395.48 514.4L395.59 514.19L395.7 513.99L395.82 513.79L395.95 513.59L396.09 513.41L396.23 513.22L396.38 513.04L396.54 512.87L396.71 512.7L396.89 512.54L397.07 512.39L397.26 512.24L397.45 512.09L397.65 511.96L397.86 511.83L398.07 511.71L398.29 511.59L398.51 511.48L398.74 511.38L398.97 511.29L399.21 511.21L399.45 511.13L399.7 511.06L399.95 511L400.21 510.95L400.46 510.91L400.72 510.88L400.99 510.85L401.26 510.84L401.53 510.83L401.8 510.84L402.07 510.85L402.33 510.88L402.59 510.91L402.85 510.95L403.1 511L403.36 511.06L403.6 511.13L403.84 511.21L404.08 511.29L404.32 511.38L404.54 511.48L404.77 511.59L404.98 511.71L405.2 511.83L405.4 511.96L405.6 512.09L405.8 512.24L405.99 512.39L406.17 512.54L406.34 512.7L406.51 512.87L406.67 513.04L406.82 513.22L406.97 513.41L407.11 513.59L407.24 513.79L407.36 513.99L407.47 514.19L407.57 514.4L407.67 514.61L407.76 514.82L407.83 515.04L407.9 515.26L407.96 515.49L408 515.72L408.04 515.95L408.07 516.19L408.08 516.43L408.09 516.67L408.08 516.91L408.07 517.15L408.04 517.38L408 517.61L407.96 517.84L407.9 518.07L407.83 518.29L407.76 518.51L407.67 518.73L407.57 518.94L407.47 519.14L407.36 519.35L407.24 519.55L407.11 519.74L406.97 519.93L406.82 520.11L406.67 520.29L406.51 520.46L406.34 520.63L406.17 520.79L405.99 520.95L405.8 521.1L405.6 521.24L405.4 521.37L405.2 521.5L404.98 521.63L404.77 521.74L404.54 521.85L404.32 521.95L404.08 522.04L403.84 522.13L403.6 522.2L403.36 522.27L403.1 522.33L402.85 522.38L402.59 522.42L402.33 522.46L402.07 522.48L401.8 522.5L401.53 522.5L401.26 522.5L400.99 522.48Z" id="a204BvXAZK"></path><path d="M482.31 530L482.34 529.99L482.37 529.99L482.39 529.98L482.42 529.98L482.45 529.97L482.47 529.96L482.49 529.95L482.52 529.93L482.54 529.92L482.56 529.91L482.58 529.89L482.6 529.88L482.62 529.86L482.64 529.84L482.66 529.82L482.68 529.8L482.7 529.78L482.72 529.76L482.73 529.73L482.75 529.71L482.77 529.68L482.78 529.66L482.8 529.63L482.81 529.61L482.83 529.58L482.84 529.55L482.86 529.52L482.87 529.49L482.88 529.46L482.9 529.43L482.91 529.4L482.92 529.37L482.94 529.33L482.95 529.3L482.96 529.27L482.97 529.23L482.99 529.2L483 529.17L483.65 527L483.85 526.95L484.3 526.81L484.74 526.65L485.18 526.48L485.6 526.29L485.64 526.27L487.82 527.4L487.86 527.42L487.89 527.43L487.93 527.45L487.97 527.46L488 527.48L488.04 527.49L488.07 527.51L488.1 527.52L488.14 527.53L488.17 527.55L488.21 527.56L488.24 527.57L488.27 527.58L488.3 527.59L488.34 527.6L488.37 527.61L488.4 527.62L488.43 527.63L488.46 527.63L488.49 527.64L488.52 527.64L488.55 527.65L488.58 527.65L488.61 527.65L488.64 527.65L488.67 527.65L488.69 527.65L488.72 527.65L488.75 527.64L488.77 527.64L488.8 527.63L488.83 527.63L488.85 527.62L488.88 527.61L488.9 527.6L488.92 527.58L488.95 527.57L488.97 527.55L488.99 527.54L489.02 527.52L492.2 524.69L492.22 524.67L492.24 524.65L492.26 524.63L492.27 524.61L492.29 524.58L492.3 524.56L492.31 524.54L492.32 524.52L492.33 524.49L492.34 524.47L492.35 524.45L492.35 524.42L492.35 524.4L492.36 524.37L492.36 524.34L492.36 524.32L492.36 524.29L492.35 524.27L492.35 524.24L492.35 524.21L492.34 524.18L492.33 524.16L492.33 524.13L492.32 524.1L492.31 524.07L492.3 524.04L492.29 524.01L492.27 523.98L492.26 523.96L492.25 523.93L492.23 523.9L492.21 523.87L492.2 523.84L492.18 523.81L492.16 523.78L492.14 523.75L492.13 523.72L492.11 523.69L492.09 523.66L492.07 523.63L490.8 521.69L490.83 521.65L491.04 521.27L491.23 520.88L491.41 520.49L491.57 520.09L491.63 519.91L494.06 519.33L494.1 519.33L494.14 519.32L494.18 519.31L494.21 519.3L494.25 519.29L494.29 519.28L494.32 519.27L494.36 519.26L494.39 519.25L494.43 519.24L494.46 519.22L494.49 519.21L494.53 519.2L494.56 519.19L494.59 519.17L494.62 519.16L494.64 519.14L494.67 519.13L494.7 519.11L494.73 519.1L494.75 519.08L494.77 519.06L494.8 519.05L494.82 519.03L494.84 519.01L494.86 518.99L494.88 518.97L494.9 518.95L494.91 518.93L494.93 518.91L494.94 518.89L494.95 518.87L494.96 518.84L494.97 518.82L494.98 518.8L494.99 518.77L494.99 518.75L495 518.72L495 518.69L495 518.67L495 514.67L495 514.64L495 514.61L494.99 514.59L494.99 514.56L494.98 514.54L494.97 514.52L494.96 514.49L494.95 514.47L494.94 514.45L494.93 514.43L494.91 514.41L494.9 514.39L494.88 514.37L494.86 514.35L494.84 514.33L494.82 514.32L494.8 514.3L494.77 514.28L494.75 514.27L494.73 514.25L494.7 514.24L494.67 514.22L494.64 514.21L494.62 514.19L494.59 514.18L494.56 514.17L494.53 514.15L494.49 514.14L494.46 514.13L494.43 514.12L494.39 514.1L494.36 514.09L494.32 514.08L494.29 514.07L494.25 514.06L494.21 514.05L494.18 514.03L494.14 514.02L494.1 514.01L494.06 514L491.63 513.42L491.57 513.24L491.41 512.84L491.23 512.45L491.04 512.06L490.83 511.69L490.8 511.65L492.07 509.71L492.09 509.68L492.11 509.65L492.13 509.62L492.14 509.59L492.16 509.56L492.18 509.53L492.2 509.5L492.21 509.47L492.23 509.44L492.25 509.42L492.26 509.39L492.27 509.36L492.29 509.33L492.3 509.3L492.31 509.27L492.32 509.24L492.33 509.21L492.33 509.19L492.34 509.16L492.35 509.13L492.35 509.1L492.35 509.08L492.36 509.05L492.36 509.02L492.36 509L492.36 508.97L492.35 508.95L492.35 508.92L492.35 508.9L492.34 508.87L492.33 508.85L492.32 508.82L492.31 508.8L492.3 508.78L492.29 508.76L492.27 508.73L492.26 508.71L492.24 508.69L492.22 508.67L492.2 508.65L489.02 505.82L488.99 505.81L488.97 505.79L488.95 505.77L488.92 505.76L488.9 505.75L488.88 505.73L488.85 505.72L488.83 505.72L488.8 505.71L488.77 505.7L488.75 505.7L488.72 505.69L488.69 505.69L488.67 505.69L488.64 505.69L488.61 505.69L488.58 505.69L488.55 505.69L488.52 505.7L488.49 505.7L488.46 505.71L488.43 505.72L488.4 505.72L488.37 505.73L488.34 505.74L488.3 505.75L488.27 505.76L488.24 505.77L488.21 505.78L488.17 505.79L488.14 505.81L488.1 505.82L488.07 505.83L488.04 505.85L488 505.86L487.97 505.88L487.93 505.89L487.89 505.91L487.86 505.93L487.82 505.94L485.64 507.06L485.6 507.04L485.18 506.86L484.74 506.68L484.3 506.53L483.85 506.39L483.65 506.33L483 504.17L482.99 504.13L482.97 504.1L482.96 504.06L482.95 504.03L482.94 504L482.92 503.97L482.91 503.93L482.9 503.9L482.88 503.87L482.87 503.84L482.86 503.81L482.84 503.78L482.83 503.76L482.81 503.73L482.8 503.7L482.78 503.67L482.77 503.65L482.75 503.62L482.73 503.6L482.72 503.58L482.7 503.56L482.68 503.53L482.66 503.51L482.64 503.49L482.62 503.48L482.6 503.46L482.58 503.44L482.56 503.43L482.54 503.41L482.52 503.4L482.49 503.39L482.47 503.38L482.45 503.37L482.42 503.36L482.39 503.35L482.37 503.34L482.34 503.34L482.31 503.34L482.28 503.33L482.25 503.33L477.75 503.33L477.72 503.33L477.69 503.34L477.66 503.34L477.63 503.34L477.6 503.35L477.58 503.36L477.55 503.37L477.52 503.38L477.5 503.39L477.48 503.4L477.45 503.41L477.43 503.43L477.41 503.44L477.38 503.46L477.36 503.48L477.34 503.49L477.32 503.51L477.3 503.53L477.28 503.56L477.26 503.58L477.25 503.6L477.23 503.62L477.21 503.65L477.2 503.67L477.18 503.7L477.17 503.73L477.15 503.76L477.14 503.78L477.12 503.81L477.11 503.84L477.1 503.87L477.08 503.9L477.07 503.93L477.06 503.97L477.05 504L477.04 504.03L477.03 504.06L477.02 504.1L477.01 504.13L477 504.17L476.35 506.33L476.15 506.39L475.7 506.53L475.26 506.68L474.82 506.86L474.4 507.04L474.35 507.07L472.18 505.95L472.14 505.93L472.11 505.91L472.08 505.9L472.04 505.88L472.01 505.86L471.98 505.85L471.94 505.83L471.91 505.82L471.88 505.8L471.84 505.79L471.81 505.78L471.78 505.77L471.74 505.75L471.71 505.74L471.68 505.73L471.65 505.73L471.62 505.72L471.58 505.71L471.55 505.71L471.52 505.7L471.49 505.7L471.46 505.69L471.43 505.69L471.4 505.69L471.37 505.69L471.34 505.69L471.31 505.69L471.29 505.7L471.26 505.7L471.23 505.71L471.2 505.71L471.18 505.72L471.15 505.73L471.13 505.74L471.1 505.75L471.08 505.77L471.05 505.78L471.03 505.8L471.01 505.81L470.98 505.83L467.8 508.66L467.78 508.68L467.76 508.7L467.74 508.72L467.73 508.74L467.71 508.76L467.7 508.79L467.69 508.81L467.68 508.83L467.67 508.85L467.66 508.88L467.66 508.9L467.66 508.92L467.65 508.95L467.65 508.97L467.65 509L467.65 509.02L467.65 509.05L467.66 509.07L467.66 509.1L467.67 509.13L467.67 509.15L467.68 509.18L467.69 509.21L467.7 509.24L467.71 509.27L467.72 509.29L467.73 509.32L467.74 509.35L467.76 509.38L467.77 509.41L467.78 509.44L467.8 509.47L467.81 509.5L467.83 509.53L467.85 509.56L467.86 509.59L467.88 509.63L467.9 509.66L467.92 509.69L467.93 509.72L469.19 511.65L469.17 511.69L468.96 512.06L468.77 512.45L468.59 512.84L468.43 513.24L468.37 513.42L465.94 514L465.9 514.01L465.86 514.02L465.82 514.03L465.79 514.05L465.75 514.06L465.71 514.07L465.68 514.08L465.64 514.09L465.61 514.1L465.57 514.12L465.54 514.13L465.51 514.14L465.47 514.15L465.44 514.17L465.41 514.18L465.38 514.19L465.36 514.21L465.33 514.22L465.3 514.24L465.27 514.25L465.25 514.27L465.23 514.28L465.2 514.3L465.18 514.32L465.16 514.33L465.14 514.35L465.12 514.37L465.1 514.39L465.09 514.41L465.07 514.43L465.06 514.45L465.05 514.47L465.04 514.49L465.03 514.52L465.02 514.54L465.01 514.56L465.01 514.59L465 514.61L465 514.64L465 514.67L465 518.67L465 518.69L465 518.72L465.01 518.75L465.01 518.77L465.02 518.8L465.03 518.82L465.04 518.84L465.05 518.87L465.06 518.89L465.07 518.91L465.09 518.93L465.1 518.95L465.12 518.97L465.14 518.99L465.16 519.01L465.18 519.03L465.2 519.05L465.23 519.06L465.25 519.08L465.27 519.1L465.3 519.11L465.33 519.13L465.36 519.14L465.38 519.16L465.41 519.17L465.44 519.19L465.47 519.2L465.51 519.21L465.54 519.22L465.57 519.24L465.61 519.25L465.64 519.26L465.68 519.27L465.71 519.28L465.75 519.29L465.79 519.3L465.82 519.31L465.86 519.32L465.9 519.33L465.94 519.33L468.37 519.91L468.43 520.09L468.59 520.49L468.77 520.88L468.96 521.27L469.17 521.65L469.2 521.68L467.93 523.62L467.92 523.65L467.9 523.68L467.88 523.72L467.86 523.75L467.85 523.78L467.83 523.81L467.81 523.84L467.8 523.87L467.78 523.9L467.77 523.93L467.76 523.96L467.74 523.99L467.73 524.02L467.72 524.05L467.71 524.08L467.7 524.1L467.69 524.13L467.68 524.16L467.67 524.19L467.67 524.21L467.66 524.24L467.66 524.27L467.65 524.29L467.65 524.32L467.65 524.34L467.65 524.37L467.65 524.39L467.66 524.42L467.66 524.44L467.66 524.47L467.67 524.49L467.68 524.51L467.69 524.53L467.7 524.56L467.71 524.58L467.73 524.6L467.74 524.62L467.76 524.64L467.78 524.66L467.8 524.68L470.98 527.51L471.01 527.53L471.03 527.55L471.05 527.56L471.08 527.58L471.1 527.59L471.13 527.6L471.15 527.61L471.18 527.62L471.2 527.63L471.23 527.64L471.26 527.64L471.29 527.65L471.31 527.65L471.34 527.65L471.37 527.65L471.4 527.65L471.43 527.65L471.46 527.65L471.49 527.65L471.52 527.64L471.55 527.64L471.58 527.63L471.62 527.62L471.65 527.62L471.68 527.61L471.71 527.6L471.74 527.59L471.78 527.58L471.81 527.56L471.84 527.55L471.88 527.54L471.91 527.52L471.94 527.51L471.98 527.49L472.01 527.48L472.04 527.46L472.08 527.45L472.11 527.43L472.14 527.41L472.18 527.39L474.36 526.27L474.4 526.29L474.82 526.48L475.26 526.65L475.7 526.81L476.15 526.95L476.35 527L477 529.17L477.01 529.2L477.02 529.23L477.03 529.27L477.04 529.3L477.05 529.33L477.06 529.37L477.07 529.4L477.08 529.43L477.1 529.46L477.11 529.49L477.12 529.52L477.14 529.55L477.15 529.58L477.17 529.61L477.18 529.63L477.2 529.66L477.21 529.68L477.23 529.71L477.25 529.73L477.26 529.76L477.28 529.78L477.3 529.8L477.32 529.82L477.34 529.84L477.36 529.86L477.38 529.88L477.41 529.89L477.43 529.91L477.45 529.92L477.48 529.93L477.5 529.95L477.52 529.96L477.55 529.97L477.58 529.98L477.6 529.98L477.63 529.99L477.66 529.99L477.69 530L477.72 530L477.75 530L482.25 530L482.28 530L482.31 530ZM479.46 522.48L479.2 522.46L478.94 522.42L478.68 522.38L478.42 522.33L478.17 522.27L477.93 522.2L477.68 522.13L477.45 522.04L477.21 521.95L476.98 521.85L476.76 521.74L476.54 521.63L476.33 521.5L476.12 521.37L475.92 521.24L475.73 521.1L475.54 520.95L475.36 520.79L475.18 520.63L475.02 520.46L474.86 520.29L474.7 520.11L474.56 519.93L474.42 519.74L474.29 519.55L474.17 519.35L474.06 519.14L473.95 518.94L473.86 518.73L473.77 518.51L473.7 518.29L473.63 518.07L473.57 517.84L473.52 517.61L473.49 517.38L473.46 517.15L473.44 516.91L473.44 516.67L473.44 516.43L473.46 516.19L473.49 515.95L473.52 515.72L473.57 515.49L473.63 515.26L473.7 515.04L473.77 514.82L473.86 514.61L473.95 514.4L474.06 514.19L474.17 513.99L474.29 513.79L474.42 513.59L474.56 513.41L474.7 513.22L474.86 513.04L475.02 512.87L475.18 512.7L475.36 512.54L475.54 512.39L475.73 512.24L475.92 512.09L476.12 511.96L476.33 511.83L476.54 511.71L476.76 511.59L476.98 511.48L477.21 511.38L477.45 511.29L477.68 511.21L477.93 511.13L478.17 511.06L478.42 511L478.68 510.95L478.94 510.91L479.2 510.88L479.46 510.85L479.73 510.84L480 510.83L480.27 510.84L480.54 510.85L480.8 510.88L481.06 510.91L481.32 510.95L481.58 511L481.83 511.06L482.07 511.13L482.32 511.21L482.55 511.29L482.79 511.38L483.02 511.48L483.24 511.59L483.46 511.71L483.67 511.83L483.88 511.96L484.08 512.09L484.27 512.24L484.46 512.39L484.64 512.54L484.82 512.7L484.98 512.87L485.14 513.04L485.3 513.22L485.44 513.41L485.58 513.59L485.71 513.79L485.83 513.99L485.94 514.19L486.05 514.4L486.14 514.61L486.23 514.82L486.3 515.04L486.37 515.26L486.43 515.49L486.48 515.72L486.51 515.95L486.54 516.19L486.56 516.43L486.56 516.67L486.56 516.91L486.54 517.15L486.51 517.38L486.48 517.61L486.43 517.84L486.37 518.07L486.3 518.29L486.23 518.51L486.14 518.73L486.05 518.94L485.94 519.14L485.83 519.35L485.71 519.55L485.58 519.74L485.44 519.93L485.3 520.11L485.14 520.29L484.98 520.46L484.82 520.63L484.64 520.79L484.46 520.95L484.27 521.1L484.08 521.24L483.88 521.37L483.67 521.5L483.46 521.63L483.24 521.74L483.02 521.85L482.79 521.95L482.55 522.04L482.32 522.13L482.07 522.2L481.83 522.27L481.58 522.33L481.32 522.38L481.06 522.42L480.8 522.46L480.54 522.48L480.27 522.5L480 522.5L479.73 522.5L479.46 522.48Z" id="c2txeWgESi"></path><path d="M161.53 121.67L170 121.67L170 257.08L161.53 257.08L161.53 121.67Z" id="bEy35ebST"></path><path d="M175.83 269.93C175.83 275.49 171.35 280 165.83 280C160.31 280 155.83 275.49 155.83 269.93C155.83 264.37 160.31 259.86 165.83 259.86C171.35 259.86 175.83 264.37 175.83 269.93Z" id="iBGHosaHe"></path><path d="M474.86 440L570 440L570 490L474.86 490L474.86 440Z" id="ai1V9JF8k"></path><path d="M117.77 342.86L113.86 340.09L156.09 280.47L160 283.24L117.77 342.86Z" id="c6pjjJEiD"></path><path d="M302.43 440L397.57 440L397.57 490L302.43 490L302.43 440Z" id="e1fpoq37Fa"></path><path d="M120 440L215.14 440L215.14 490L120 490L120 440Z" id="c1th1d6DHx"></path><path d="M173.91 280.53L170 283.3L212.23 342.92L216.14 340.15L173.91 280.53Z" id="ala0Ithdq"></path><path d="M118.33 347.15C118.33 349.64 116.09 351.67 113.33 351.67C110.57 351.67 108.33 349.64 108.33 347.15C108.33 344.66 110.57 342.64 113.33 342.64C116.09 342.64 118.33 344.66 118.33 347.15Z" id="aa2cV3ac"></path><path d="M222.08 347.74C222.08 350.23 219.84 352.25 217.08 352.25C214.32 352.25 212.08 350.23 212.08 347.74C212.08 345.24 214.32 343.22 217.08 343.22C219.84 343.22 222.08 345.24 222.08 347.74Z" id="h3VKTWMS0"></path><path d="M110.99 396.6L104.12 396.6L104.13 353.4L111 353.4L110.99 396.6Z" id="b2A8OGHWxX"></path><path d="M226.87 398.6L220 398.6L220.01 355.4L226.88 355.4L226.87 398.6Z" id="k2uytGxxVQ"></path><path d="M179.57 114.58L193.75 100L165.38 100L137.01 100L151.2 114.58L165.38 129.17L179.57 114.58Z" id="bmXLm40yU"></path><path d="M90 80L600 80L600 100L90 100L90 80Z" id="b187BjcLg0"></path></defs><g><g><g><use xlink:href="#a2xK4UCP3w" opacity="1" fill="#1ea4ed" fill-opacity="1"></use></g><g><use xlink:href="#i1r3FP9svR" opacity="1" fill="#1ea4ed" fill-opacity="1"></use></g><g><use xlink:href="#aO2bFbrhR" opacity="1" fill="#cc15b1" fill-opacity="1"></use></g><g><use xlink:href="#eWeR06JTe" opacity="1" fill="#cc15b1" fill-opacity="1"></use></g><g><use xlink:href="#a1UIQTBy9" opacity="1" fill="#cc15b1" fill-opacity="1"></use></g><g><use xlink:href="#cbr77UI19" opacity="1" fill="#cc15b1" fill-opacity="1"></use></g><g><use xlink:href="#c3lfxoAJbJ" opacity="1" fill="#cc15b1" fill-opacity="1"></use></g><g><use xlink:href="#a204BvXAZK" opacity="1" fill="#cc15b1" fill-opacity="1"></use></g><g><use xlink:href="#c2txeWgESi" opacity="1" fill="#cc15b1" fill-opacity="1"></use></g><g><use xlink:href="#bEy35ebST" opacity="1" fill="#579ec2" fill-opacity="1"></use></g><g><use xlink:href="#iBGHosaHe" opacity="1" fill="#9e520b" fill-opacity="1"></use></g><g><use xlink:href="#ai1V9JF8k" opacity="1" fill="#9c29ab" fill-opacity="1"></use></g><g><use xlink:href="#c6pjjJEiD" opacity="1" fill="#aab9fb" fill-opacity="1"></use></g><g><use xlink:href="#e1fpoq37Fa" opacity="1" fill="#9c29ab" fill-opacity="1"></use></g><g><use xlink:href="#c1th1d6DHx" opacity="1" fill="#9c29ab" fill-opacity="1"></use></g><g><use xlink:href="#ala0Ithdq" opacity="1" fill="#aab9fb" fill-opacity="1"></use></g><g><use xlink:href="#aa2cV3ac" opacity="1" fill="#9e520b" fill-opacity="1"></use></g><g><use xlink:href="#h3VKTWMS0" opacity="1" fill="#9e520b" fill-opacity="1"></use></g><g><use xlink:href="#b2A8OGHWxX" opacity="1" fill="#aab9fb" fill-opacity="1"></use></g><g><use xlink:href="#k2uytGxxVQ" opacity="1" fill="#aab9fb" fill-opacity="1"></use></g><g><use xlink:href="#bmXLm40yU" opacity="1" fill="#bc4af2" fill-opacity="1"></use></g><g><use xlink:href="#b187BjcLg0" opacity="1" fill="#84682f" fill-opacity="1"></use></g></g></g></svg>